<?xml version="1.0" encoding="UTF-8"?>
<!DOCTYPE svg PUBLIC "-//W3C//DTD SVG 1.1//EN" "http://www.w3.org/Graphics/SVG/1.1/DTD/svg11.dtd">
<svg xmlns="http://www.w3.org/2000/svg" version="1.1" width="1264px" height="848px" style="shape-rendering:geometricPrecision; text-rendering:geometricPrecision; image-rendering:optimizeQuality; fill-rule:evenodd; clip-rule:evenodd" xmlns:xlink="http://www.w3.org/1999/xlink">
<g><path style="opacity:1" fill="#e0e0df" d="M 1212.5,105.5 C 1213.57,100.822 1213.57,96.1558 1212.5,91.5C 1208.94,93.7788 1205.27,95.7788 1201.5,97.5C 1201.63,93.515 1203.46,92.1817 1207,93.5C 1207.32,91.6992 1207.98,91.3659 1209,92.5C 1210.4,90.8078 1212.23,90.1412 1214.5,90.5C 1214.33,94.1817 1214.5,97.8484 1215,101.5C 1215.33,98.5 1215.67,95.5 1216,92.5C 1216.87,96.9558 1216.53,101.289 1215,105.5C 1214.67,104.5 1214.33,103.5 1214,102.5C 1213.77,103.737 1213.27,104.737 1212.5,105.5 Z"/></g>
<g><path style="opacity:1" fill="none" d="M 31.5,133.5 C 30.5318,135.607 30.1984,137.941 30.5,140.5C 29.1997,137.976 29.1997,135.309 30.5,132.5C 31.1067,132.624 31.44,132.957 31.5,133.5 Z"/></g>
<g><path style="opacity:1" fill="none" d="M 227.5,282.5 C 223.702,281.517 219.702,281.183 215.5,281.5C 225.347,280.505 235.347,280.005 245.5,280C 239.481,281.012 233.481,281.845 227.5,282.5 Z"/></g>
<g><path style="opacity:1" fill="none" d="M 184.5,281.5 C 194.833,281.5 205.167,281.5 215.5,281.5C 219.702,281.183 223.702,281.517 227.5,282.5C 216.362,284.068 205.028,285.068 193.5,285.5C 196.628,284.368 199.962,283.535 203.5,283C 196.987,282.828 190.653,282.328 184.5,281.5 Z"/></g>
<g><path style="opacity:1" fill="none" d="M 1094.5,295.5 C 1090.92,296.993 1087.09,298.326 1083,299.5C 1080.28,298.556 1077.45,298.223 1074.5,298.5C 1080.93,296.754 1087.59,295.754 1094.5,295.5 Z"/></g>
<g><path style="opacity:1" fill="none" d="M 1016.5,302.5 C 1022.73,302.388 1028.73,303.054 1034.5,304.5C 1028.29,304.477 1022.29,303.81 1016.5,302.5 Z"/></g>
<g><path style="opacity:1" fill="none" d="M 1121.5,308.5 C 1107.87,308.758 1094.2,308.425 1080.5,307.5C 1093.52,307.777 1106.52,307.444 1119.5,306.5C 1120.5,306.833 1121.5,307.167 1122.5,307.5C 1122.38,308.107 1122.04,308.44 1121.5,308.5 Z"/></g>
<g><path style="opacity:1" fill="#090907" d="M 322.5,197.5 C 324.515,198.924 326.848,199.59 329.5,199.5C 351.751,204.478 372.751,212.645 392.5,224C 397.833,228 403.167,232 408.5,236C 435.46,262.641 464.46,286.641 495.5,308C 504,313.25 513,317.417 522.5,320.5C 542.37,302.73 565.37,291.73 591.5,287.5C 596.731,287.556 601.731,286.889 606.5,285.5C 613.167,285.5 619.833,285.5 626.5,285.5C 627.263,286.268 628.263,286.768 629.5,287C 633.821,287.499 638.154,287.666 642.5,287.5C 667.282,292.22 689.616,302.554 709.5,318.5C 724.248,312.906 737.915,305.406 750.5,296C 773.71,278.463 796.044,259.796 817.5,240C 836.454,225.024 857.454,214.024 880.5,207C 975.862,189.213 1067.86,160.546 1156.5,121C 1171.81,113.677 1186.81,105.844 1201.5,97.5C 1205.27,95.7788 1208.94,93.7788 1212.5,91.5C 1213.57,96.1558 1213.57,100.822 1212.5,105.5C 1209.88,114.294 1205.71,122.294 1200,129.5C 1187.2,144.277 1172.37,156.277 1155.5,165.5C 1118.69,183.064 1080.36,196.397 1040.5,205.5C 1037.17,205.264 1034.17,206.097 1031.5,208C 1035.03,208.243 1038.37,207.743 1041.5,206.5C 1078.1,200.86 1113.77,191.694 1148.5,179C 1151.41,177.768 1154.08,176.268 1156.5,174.5C 1173.64,168.277 1190.31,160.777 1206.5,152C 1207.64,151.251 1208.64,151.417 1209.5,152.5C 1203.38,179.583 1188.71,200.749 1165.5,216C 1150.46,225.185 1134.46,232.185 1117.5,237C 1091.45,243.713 1065.12,248.88 1038.5,252.5C 1030.47,253.003 1022.47,253.836 1014.5,255C 1027.01,255.231 1039.34,254.731 1051.5,253.5C 1054.5,253.5 1057.5,253.5 1060.5,253.5C 1064.51,253.666 1068.51,253.499 1072.5,253C 1073.74,252.768 1074.74,252.268 1075.5,251.5C 1084.86,250.998 1094.19,250.164 1103.5,249C 1127.5,243.892 1151.5,239.225 1175.5,235C 1166.01,258.496 1149.67,275.496 1126.5,286C 1116.15,290.283 1105.49,293.449 1094.5,295.5C 1087.59,295.754 1080.93,296.754 1074.5,298.5C 1052.17,299.771 1029.84,299.771 1007.5,298.5C 1000.96,297.624 994.294,296.624 987.5,295.5C 986.167,295.667 984.833,295.833 983.5,296C 988.613,298.13 993.946,299.297 999.5,299.5C 1004.91,301.236 1010.58,302.236 1016.5,302.5C 1022.29,303.81 1028.29,304.477 1034.5,304.5C 1049.75,306.005 1065.08,307.005 1080.5,307.5C 1094.2,308.425 1107.87,308.758 1121.5,308.5C 1106.27,331.845 1084.6,344.678 1056.5,347C 1041.01,348.026 1025.68,347.193 1010.5,344.5C 990.825,340.824 971.492,335.49 952.5,328.5C 951.201,326.901 949.535,326.401 947.5,327C 948.693,328.095 950.027,328.928 951.5,329.5C 967.691,338.764 984.691,346.097 1002.5,351.5C 1010.25,354.437 1018.25,356.437 1026.5,357.5C 1028.51,358.924 1030.85,359.59 1033.5,359.5C 1040.17,360.613 1046.84,361.947 1053.5,363.5C 1044.44,376.37 1032.11,384.203 1016.5,387C 1007.16,388.949 997.829,388.949 988.5,387C 978.637,384.288 968.97,381.121 959.5,377.5C 942.597,369.56 926.597,360.393 911.5,350C 923.506,361.851 936.506,372.351 950.5,381.5C 962.179,389.677 974.513,396.844 987.5,403C 978.562,409.594 968.562,413.761 957.5,415.5C 950.798,415.664 944.131,415.331 937.5,414.5C 933.302,413.733 929.302,412.399 925.5,410.5C 911.036,402.038 898.036,391.705 886.5,379.5C 884.167,376.997 882.001,374.331 880,371.5C 880.51,375.517 882.343,378.85 885.5,381.5C 893.717,393.388 903.383,404.055 914.5,413.5C 919.839,418.161 925.506,422.495 931.5,426.5C 930.076,428.718 928.076,430.218 925.5,431C 904.464,440.256 886.464,436.422 871.5,419.5C 863.347,411.512 856.514,402.512 851,392.5C 853.697,403.228 858.531,412.895 865.5,421.5C 870.509,430.156 876.509,438.156 883.5,445.5C 874.38,450.097 864.713,451.597 854.5,450C 847.548,447.06 841.714,442.56 837,436.5C 833.141,430.103 829.308,423.77 825.5,417.5C 825.038,415.243 824.038,413.243 822.5,411.5C 821.933,414.398 822.599,417.065 824.5,419.5C 828.722,432.921 834.222,445.588 841,457.5C 833.273,461.29 825.106,462.457 816.5,461C 812.724,459.053 809.39,456.553 806.5,453.5C 801.755,444.341 797.255,435.008 793,425.5C 793.483,434.406 795.649,442.739 799.5,450.5C 800.808,455.923 802.808,461.089 805.5,466C 787.661,473.58 776.328,468.08 771.5,449.5C 771.44,448.957 771.107,448.624 770.5,448.5C 769.188,453.318 769.188,457.985 770.5,462.5C 770.38,464.734 770.713,466.901 771.5,469C 771.164,470.03 770.497,470.53 769.5,470.5C 766.5,470.5 763.5,470.5 760.5,470.5C 760.5,471.833 760.5,473.167 760.5,474.5C 759.138,480.898 757.471,487.231 755.5,493.5C 753.501,492.143 752.335,492.81 752,495.5C 751.259,494.359 750.425,494.359 749.5,495.5C 748.833,499.833 748.167,504.167 747.5,508.5C 746.667,507.5 745.833,506.5 745,505.5C 743.89,507.397 743.724,509.23 744.5,511C 741.571,511.777 738.737,511.61 736,510.5C 735.807,513.423 734.974,516.256 733.5,519C 731.512,519.18 729.512,519.014 727.5,518.5C 727.817,515.428 727.484,512.428 726.5,509.5C 725.614,510.325 725.281,511.325 725.5,512.5C 721.638,523.225 715.971,532.892 708.5,541.5C 707.957,541.56 707.624,541.893 707.5,542.5C 711.335,544.163 711.001,544.663 706.5,544C 705.495,542.249 704.828,542.249 704.5,544C 704.779,546.662 705.945,547.495 708,546.5C 708.903,547.701 710.069,548.535 711.5,549C 709.792,551.681 707.458,553.015 704.5,553C 705.5,552.167 706.5,551.333 707.5,550.5C 707.167,550.167 706.833,549.833 706.5,549.5C 704.146,550.06 701.813,550.727 699.5,551.5C 700.391,552.59 701.391,552.59 702.5,551.5C 703.745,552.955 703.578,554.289 702,555.5C 699.828,554.491 698.662,552.824 698.5,550.5C 696.473,550.662 694.473,550.495 692.5,550C 693.833,548.16 693.666,547.66 692,548.5C 691.51,547.207 691.343,545.873 691.5,544.5C 691.813,541.753 691.48,539.086 690.5,536.5C 687.385,545.736 682.052,553.402 674.5,559.5C 674.957,560.298 675.624,560.631 676.5,560.5C 677.735,560.721 678.735,561.388 679.5,562.5C 681.444,561.811 683.444,561.311 685.5,561C 684.833,560.667 684.167,560.333 683.5,560C 685.585,558.959 687.252,557.459 688.5,555.5C 689.148,557.512 690.981,558.845 694,559.5C 696.02,558.968 696.853,557.635 696.5,555.5C 697.822,555.33 698.989,555.663 700,556.5C 700.25,559.754 701.25,562.754 703,565.5C 703.758,563.231 703.591,561.064 702.5,559C 704.047,558.667 705.38,559.167 706.5,560.5C 708.632,558.883 710.965,558.383 713.5,559C 710.354,559.11 709.354,560.443 710.5,563C 706.128,563.546 703.795,565.713 703.5,569.5C 699.026,567.141 698.692,567.641 702.5,571C 700.561,571.908 699.561,573.408 699.5,575.5C 696.871,578.441 697.538,579.107 701.5,577.5C 702.791,578.542 702.791,579.708 701.5,581C 702.635,581.749 703.635,581.583 704.5,580.5C 704.291,579.914 703.957,579.414 703.5,579C 705.919,577.07 707.586,577.403 708.5,580C 707.262,579.923 706.262,580.089 705.5,580.5C 707.528,582.941 709.862,583.108 712.5,581C 711.216,579.703 711.383,578.536 713,577.5C 714.118,579.267 714.618,581.101 714.5,583C 713.576,584.811 712.743,584.645 712,582.5C 708.77,585.703 706.436,589.37 705,593.5C 704.667,592.833 704.333,592.167 704,591.5C 702.871,593.141 701.371,594.141 699.5,594.5C 697.076,594.192 694.743,594.526 692.5,595.5C 692.624,596.107 692.957,596.44 693.5,596.5C 693.579,597.93 693.246,599.264 692.5,600.5C 695.418,601.87 698.418,602.87 701.5,603.5C 702.048,607.037 703.381,610.204 705.5,613C 704.233,614.796 704.233,616.629 705.5,618.5C 703.665,619.428 703.332,620.594 704.5,622C 701.779,623.651 701.446,625.318 703.5,627C 702.833,627.667 702.167,627.667 701.5,627C 700.315,625.647 698.981,624.48 697.5,623.5C 696.818,624.243 696.151,624.909 695.5,625.5C 689.163,623.281 683.83,624.614 679.5,629.5C 677.367,631.091 675.701,633.091 674.5,635.5C 673.837,637.042 673.17,638.709 672.5,640.5C 671.124,641.842 669.791,643.175 668.5,644.5C 669.718,645.803 669.385,646.803 667.5,647.5C 667.855,648.522 668.522,649.189 669.5,649.5C 669.5,650.833 669.5,652.167 669.5,653.5C 668.662,653.842 668.328,654.508 668.5,655.5C 666.907,654.652 665.74,653.319 665,651.5C 665,652.833 665,654.167 665,655.5C 664.282,656.451 663.449,656.617 662.5,656C 663.926,653.289 663.592,650.789 661.5,648.5C 661.736,650.52 661.736,652.686 661.5,655C 660.065,654.689 658.732,654.855 657.5,655.5C 656.692,655.192 656.025,654.692 655.5,654C 656.812,649.197 656.812,644.364 655.5,639.5C 656.376,638.749 657.376,638.249 658.5,638C 656.833,636.333 655.167,634.667 653.5,633C 656.892,631.437 657.225,629.437 654.5,627C 654.86,625.348 655.193,623.682 655.5,622C 653.991,620.326 653.324,618.66 653.5,617C 654.833,616.667 656.167,616.333 657.5,616C 655.322,613.889 653.655,611.389 652.5,608.5C 651.893,608.624 651.56,608.957 651.5,609.5C 648.828,617.183 646.162,624.849 643.5,632.5C 637.672,640.329 630.006,645.329 620.5,647.5C 618.396,647.799 616.396,647.466 614.5,646.5C 617.125,638.665 619.125,630.665 620.5,622.5C 621.788,620.965 621.788,619.299 620.5,617.5C 619.571,618.689 619.238,620.022 619.5,621.5C 616.282,630.045 612.616,638.378 608.5,646.5C 601.882,652.388 594.215,654.055 585.5,651.5C 584.602,650.842 583.602,650.176 582.5,649.5C 586.65,638.221 591.484,627.221 597,616.5C 597.667,615.5 597.667,614.5 597,613.5C 589.117,624.433 582.95,636.266 578.5,649C 580.304,652.301 582.304,655.468 584.5,658.5C 594.689,671.469 596.189,685.469 589,700.5C 586.642,704.358 583.475,707.358 579.5,709.5C 578.337,707.45 578.504,705.45 580,703.5C 580.667,700.167 580.667,696.833 580,693.5C 578.384,688.589 575.551,684.589 571.5,681.5C 570.878,680.373 570.045,679.373 569,678.5C 568.817,675.635 568.317,672.969 567.5,670.5C 567.625,665.667 566.792,661 565,656.5C 561.536,650.568 558.369,644.568 555.5,638.5C 556.807,637.198 556.807,635.865 555.5,634.5C 556.247,634.264 557.08,633.93 558,633.5C 558.667,631.5 558.667,629.5 558,627.5C 555.074,624.645 552.907,621.311 551.5,617.5C 548.698,614.358 545.365,612.025 541.5,610.5C 539.482,608.65 537.649,606.65 536,604.5C 533.774,606.324 532.274,608.157 531.5,610C 529.521,610.684 527.854,610.184 526.5,608.5C 525.808,609.025 525.308,609.692 525,610.5C 524.667,610.167 524.333,609.833 524,609.5C 523.293,611.081 522.46,612.581 521.5,614C 522.5,614.333 523.5,614.667 524.5,615C 520.707,616.054 518.373,618.554 517.5,622.5C 518.233,623.087 519.233,623.087 520.5,622.5C 519.45,627.114 519.283,631.78 520,636.5C 520.232,635.263 520.732,634.263 521.5,633.5C 522.15,633.804 522.817,634.137 523.5,634.5C 524.169,636.631 524.835,638.631 525.5,640.5C 525.5,640.833 525.5,641.167 525.5,641.5C 525.146,643.541 525.146,645.374 525.5,647C 524.122,648.713 522.455,650.047 520.5,651C 521.535,652.507 521.368,654.007 520,655.5C 519.25,654.874 518.416,654.374 517.5,654C 519.495,653.076 519.828,651.91 518.5,650.5C 518.815,646.629 518.482,642.962 517.5,639.5C 506.709,637.573 497.209,640.239 489,647.5C 486.137,651.38 484.97,655.713 485.5,660.5C 493.501,658.807 500.001,661.14 505,667.5C 505.464,666.906 505.631,666.239 505.5,665.5C 507.124,661.435 509.624,660.768 513,663.5C 514.439,661.986 515.939,661.653 517.5,662.5C 519.111,661.68 519.778,660.346 519.5,658.5C 521.39,658.297 522.89,658.963 524,660.5C 525.57,660.33 527.403,659.997 529.5,659.5C 529.281,658.325 529.614,657.325 530.5,656.5C 532.556,658.019 534.89,658.853 537.5,659C 538.085,660.302 538.751,661.469 539.5,662.5C 539.989,663.995 540.655,665.329 541.5,666.5C 542.684,669.861 544.517,672.861 547,675.5C 545.818,670.332 545.318,664.999 545.5,659.5C 547.613,653.513 551.613,652.013 557.5,655C 562.424,659.017 564.424,664.184 563.5,670.5C 563.334,674.514 563.501,678.514 564,682.5C 564.333,681.167 564.667,679.833 565,678.5C 565.495,680.473 565.662,682.473 565.5,684.5C 562.22,694.662 561.72,704.995 564,715.5C 566.992,724.26 573.159,729.093 582.5,730C 566.149,737.778 552.983,733.945 543,718.5C 540.512,708.975 538.845,699.309 538,689.5C 531.522,680.089 523.022,677.589 512.5,682C 505.339,687.146 502.172,693.979 503,702.5C 505.586,708.088 509.753,711.921 515.5,714C 494.492,718.678 480.326,710.845 473,690.5C 470.495,681.046 471.495,672.046 476,663.5C 476.333,659.833 476.667,656.167 477,652.5C 477.36,650.579 478.194,648.912 479.5,647.5C 471.595,647.522 463.595,647.355 455.5,647C 453.608,646.027 451.608,645.36 449.5,645C 447.673,644.101 446.34,642.767 445.5,641C 446.985,638.683 448.652,636.516 450.5,634.5C 464.236,620.763 476.903,606.097 488.5,590.5C 479.678,597.801 471.011,605.968 462.5,615C 457.429,619.185 452.429,623.352 447.5,627.5C 432.418,638.404 417.584,638.071 403,626.5C 401.813,624.956 401.48,623.289 402,621.5C 407.351,618.42 412.184,614.753 416.5,610.5C 441.268,593.575 463.434,573.575 483,550.5C 484.289,548.945 484.956,547.279 485,545.5C 461.287,569.07 435.454,589.737 407.5,607.5C 390.927,618.393 375.76,616.726 362,602.5C 360.872,600.655 360.372,598.655 360.5,596.5C 379.181,587.656 397.181,577.49 414.5,566C 437.117,552.05 458.617,536.55 479,519.5C 477.637,513.071 475.637,506.738 473,500.5C 470.544,489.966 469.044,479.3 468.5,468.5C 461.863,469.276 455.196,469.609 448.5,469.5C 450.275,464.271 451.775,458.938 453,453.5C 453.998,449.527 454.331,445.527 454,441.5C 450.288,451.132 444.121,458.632 435.5,464C 429.5,464.667 423.5,464.667 417.5,464C 415.998,463.417 414.665,462.584 413.5,461.5C 420.928,448.329 425.761,434.329 428,419.5C 423.651,431.71 417.151,442.544 408.5,452C 397.591,458.043 386.758,457.877 376,451.5C 375.333,450.833 375.333,450.167 376,449.5C 379.919,445.324 383.086,440.657 385.5,435.5C 391.677,424.85 396.344,413.85 399.5,402.5C 393.312,414.009 385.979,424.676 377.5,434.5C 365.043,445.133 351.043,447.466 335.5,441.5C 333.278,440.464 332.112,438.797 332,436.5C 347.938,421.236 360.771,403.736 370.5,384C 370.026,382.392 369.359,382.226 368.5,383.5C 358.907,398.092 347.24,410.759 333.5,421.5C 319.207,428.995 304.541,429.495 289.5,423C 286.328,421.248 283.328,419.248 280.5,417C 285.529,413.49 290.529,409.99 295.5,406.5C 313.258,392.91 329.258,377.41 343.5,360C 333.626,367.843 323.626,375.843 313.5,384C 305.438,389.693 297.105,394.86 288.5,399.5C 269.334,407.7 250.334,407.2 231.5,398C 228.37,395.872 225.537,393.372 223,390.5C 222.251,389.365 222.417,388.365 223.5,387.5C 233.171,384.625 242.171,380.625 250.5,375.5C 270.529,366.624 288.862,355.124 305.5,341C 284.67,352.074 263.004,361.574 240.5,369.5C 233.833,370.833 227.167,372.167 220.5,373.5C 213.789,373.713 207.123,373.38 200.5,372.5C 186.29,370.562 173.623,365.062 162.5,356C 159.269,353.273 156.603,350.106 154.5,346.5C 169.974,344.13 185.308,341.13 200.5,337.5C 221.253,333.136 241.253,326.803 260.5,318.5C 265.47,317.518 270.137,315.684 274.5,313C 273.167,312.333 271.833,312.333 270.5,313C 266.46,314.691 262.46,316.191 258.5,317.5C 248.79,319.844 239.123,322.344 229.5,325C 218.358,326.509 207.358,328.009 196.5,329.5C 155.323,335.865 120.823,323.865 93,293.5C 91.1667,290.5 89.3333,287.5 87.5,284.5C 89.8333,284.167 92.1667,283.833 94.5,283.5C 127.613,286.501 160.613,287.168 193.5,285.5C 205.028,285.068 216.362,284.068 227.5,282.5C 233.481,281.845 239.481,281.012 245.5,280C 235.347,280.005 225.347,280.505 215.5,281.5C 205.167,281.5 194.833,281.5 184.5,281.5C 153.813,280.83 124.146,274.997 95.5,264C 72.0558,253.223 56.3892,235.556 48.5,211C 48.8333,210.5 49.1667,210 49.5,209.5C 61.4633,214.041 73.7966,217.374 86.5,219.5C 119.511,229.388 153.511,235.055 188.5,236.5C 195.493,237.39 202.66,238.056 210,238.5C 211.833,238.167 213.667,237.833 215.5,237.5C 209.228,236.239 202.895,235.573 196.5,235.5C 161.473,231.897 127.473,224.231 94.5,212.5C 69.289,203.304 50.1223,186.971 37,163.5C 33.7099,156.132 31.5432,148.466 30.5,140.5C 30.1984,137.941 30.5318,135.607 31.5,133.5C 46.126,143.648 61.7927,151.982 78.5,158.5C 82.2784,160.892 86.2784,163.059 90.5,165C 110.648,172.999 131.314,179.165 152.5,183.5C 155.855,184.551 159.355,185.551 163,186.5C 165,185.833 165,185.167 163,184.5C 160.447,183.892 157.947,183.225 155.5,182.5C 131.572,175.522 108.572,166.189 86.5,154.5C 76.8005,148.982 67.4672,142.815 58.5,136C 44.681,124.527 35.8477,110.027 32,92.5C 31.1717,87.798 31.3384,83.1313 32.5,78.5C 70.9247,104.55 111.591,126.717 154.5,145C 209.059,167.019 265.059,184.519 322.5,197.5 Z"/></g>
<g><path style="opacity:1" fill="none" d="M 260.5,318.5 C 260.158,317.662 259.492,317.328 258.5,317.5C 262.46,316.191 266.46,314.691 270.5,313C 271.833,312.333 273.167,312.333 274.5,313C 270.137,315.684 265.47,317.518 260.5,318.5 Z"/></g>
<g><path style="opacity:1" fill="none" d="M 891.5,312.5 C 895.226,312.177 898.893,312.511 902.5,313.5C 902.376,314.107 902.043,314.44 901.5,314.5C 898.167,313.833 894.833,313.167 891.5,312.5 Z"/></g>
<g><path style="opacity:1" fill="#ededec" d="M 891.5,312.5 C 894.833,313.167 898.167,313.833 901.5,314.5C 886.505,320.426 871.838,319.593 857.5,312C 850.646,308.408 844.313,304.075 838.5,299C 839,298.833 839.5,298.667 840,298.5C 856.496,305.748 873.662,310.415 891.5,312.5 Z"/></g>
<g><path style="opacity:1" fill="#ebebe9" d="M 356.5,296.5 C 363.5,297.167 370.5,297.833 377.5,298.5C 366.884,302.521 355.884,304.021 344.5,303C 335.81,301.157 328.477,296.99 322.5,290.5C 322.833,290.167 323.167,289.833 323.5,289.5C 334.015,293.877 345.015,296.21 356.5,296.5 Z"/></g>
<g><path style="opacity:1" fill="none" d="M 1007.5,298.5 C 1004.61,298.194 1001.95,298.527 999.5,299.5C 993.946,299.297 988.613,298.13 983.5,296C 984.833,295.833 986.167,295.667 987.5,295.5C 994.294,296.624 1000.96,297.624 1007.5,298.5 Z"/></g>
<g><path style="opacity:1" fill="none" d="M 381.5,296.5 C 382.601,295.402 383.934,295.235 385.5,296C 384.383,297.892 382.716,298.725 380.5,298.5C 381.263,297.732 382.263,297.232 383.5,297C 382.906,296.536 382.239,296.369 381.5,296.5 Z"/></g>
<g><path style="opacity:1" fill="none" d="M 356.5,296.5 C 364.833,296.5 373.167,296.5 381.5,296.5C 382.239,296.369 382.906,296.536 383.5,297C 382.263,297.232 381.263,297.732 380.5,298.5C 379.5,298.5 378.5,298.5 377.5,298.5C 370.5,297.833 363.5,297.167 356.5,296.5 Z"/></g>
<g><path style="opacity:1" fill="none" d="M 626.5,285.5 C 632.069,285.376 637.402,286.043 642.5,287.5C 638.154,287.666 633.821,287.499 629.5,287C 628.263,286.768 627.263,286.268 626.5,285.5 Z"/></g>
<g><path style="opacity:1" fill="none" d="M 606.5,285.5 C 601.731,286.889 596.731,287.556 591.5,287.5C 596.25,285.969 601.25,285.302 606.5,285.5 Z"/></g>
<g><path style="opacity:1" fill="none" d="M 861.5,277.5 C 861.735,276.903 862.235,276.57 863,276.5C 886.457,282.698 910.29,284.865 934.5,283C 923.945,290.405 912.278,293.071 899.5,291C 885.896,288.967 873.229,284.467 861.5,277.5 Z"/></g>
<g><path style="opacity:1" fill="#e9e9e8" d="M 289.5,250.5 C 311.15,261.248 334.15,266.415 358.5,266C 344.414,270.437 330.08,271.437 315.5,269C 304.124,266.492 295.457,260.326 289.5,250.5 Z"/></g>
<g><path style="opacity:1" fill="none" d="M 1038.5,252.5 C 1042.63,253.485 1046.97,253.818 1051.5,253.5C 1039.34,254.731 1027.01,255.231 1014.5,255C 1022.47,253.836 1030.47,253.003 1038.5,252.5 Z"/></g>
<g><path style="opacity:1" fill="none" d="M 930.5,253.5 C 917.5,254.167 904.5,254.833 891.5,255.5C 889.914,254.852 888.247,254.352 886.5,254C 901.163,253.5 915.83,253.333 930.5,253.5 Z"/></g>
<g><path style="opacity:1" fill="none" d="M 1075.5,251.5 C 1074.74,252.268 1073.74,252.768 1072.5,253C 1068.51,253.499 1064.51,253.666 1060.5,253.5C 1065.33,252.6 1070.33,251.934 1075.5,251.5 Z"/></g>
<g><path style="opacity:1" fill="#efefef" d="M 891.5,255.5 C 904.5,254.833 917.5,254.167 930.5,253.5C 941.745,251.94 953.078,250.44 964.5,249C 958.576,254.798 951.576,258.798 943.5,261C 925.727,262.916 908.394,261.082 891.5,255.5 Z"/></g>
<g><path style="opacity:1" fill="none" d="M 336.5,236.5 C 337.675,236.281 338.675,236.614 339.5,237.5C 328.34,238.824 317.34,238.824 306.5,237.5C 316.681,237.827 326.681,237.494 336.5,236.5 Z"/></g>
<g><path style="opacity:1" fill="none" d="M 196.5,235.5 C 202.895,235.573 209.228,236.239 215.5,237.5C 213.667,237.833 211.833,238.167 210,238.5C 202.66,238.056 195.493,237.39 188.5,236.5C 191.385,236.806 194.052,236.473 196.5,235.5 Z"/></g>
<g><path style="opacity:1" fill="#e9e8e7" d="M 94.5,212.5 C 127.473,224.231 161.473,231.897 196.5,235.5C 194.052,236.473 191.385,236.806 188.5,236.5C 153.511,235.055 119.511,229.388 86.5,219.5C 88.5466,219.511 90.5466,219.844 92.5,220.5C 94.6061,219.57 96.6061,218.404 98.5,217C 97.8071,215.415 96.4738,213.915 94.5,212.5 Z"/></g>
<g><path style="opacity:1" fill="none" d="M 336.5,236.5 C 326.681,237.494 316.681,237.827 306.5,237.5C 292.277,235.809 280.444,229.476 271,218.5C 270.312,217.668 270.479,217.002 271.5,216.5C 291.96,227.033 313.627,233.699 336.5,236.5 Z"/></g>
<g><path style="opacity:1" fill="#eeeeee" d="M 984.5,213.5 C 986.646,213.696 986.812,214.696 985,216.5C 976.131,225.851 965.298,231.351 952.5,233C 944.5,233.167 936.5,233.333 928.5,233.5C 920.009,233.654 911.675,233.154 903.5,232C 923.165,228.772 942.831,225.105 962.5,221C 970.245,219.364 977.578,216.864 984.5,213.5 Z"/></g>
<g><path style="opacity:1" fill="none" d="M 1040.5,205.5 C 1040.5,206.167 1040.83,206.5 1041.5,206.5C 1038.37,207.743 1035.03,208.243 1031.5,208C 1034.17,206.097 1037.17,205.264 1040.5,205.5 Z"/></g>
<g><path style="opacity:1" fill="none" d="M 322.5,197.5 C 325.152,197.41 327.485,198.076 329.5,199.5C 326.848,199.59 324.515,198.924 322.5,197.5 Z"/></g>
<g><path style="opacity:1" fill="none" d="M 155.5,182.5 C 157.947,183.225 160.447,183.892 163,184.5C 165,185.167 165,185.833 163,186.5C 159.355,185.551 155.855,184.551 152.5,183.5C 153.791,183.737 154.791,183.404 155.5,182.5 Z"/></g>
<g><path style="opacity:1" fill="#e6e6e5" d="M 86.5,154.5 C 108.572,166.189 131.572,175.522 155.5,182.5C 154.791,183.404 153.791,183.737 152.5,183.5C 131.314,179.165 110.648,172.999 90.5,165C 86.2784,163.059 82.2784,160.892 78.5,158.5C 81.3981,158.09 84.3981,157.924 87.5,158C 86.8333,157.667 86.1667,157.333 85.5,157C 86.2524,156.329 86.5858,155.496 86.5,154.5 Z"/></g>
<g><path style="opacity:1" fill="#ececec" d="M 1155.5,165.5 C 1153.9,166.682 1153.57,168.015 1154.5,169.5C 1153.97,170.192 1153.31,170.692 1152.5,171C 1153.59,172.55 1154.92,173.717 1156.5,174.5C 1154.08,176.268 1151.41,177.768 1148.5,179C 1113.77,191.694 1078.1,200.86 1041.5,206.5C 1040.83,206.5 1040.5,206.167 1040.5,205.5C 1080.36,196.397 1118.69,183.064 1155.5,165.5 Z"/></g>
<g><path style="opacity:1" fill="none" d="M 642.5,317.5 C 648.865,317.666 654.532,320.166 659.5,325C 653.95,322.565 648.283,320.065 642.5,317.5 Z"/></g>
<g><path style="opacity:1" fill="none" d="M 586.5,318.5 C 593.021,318.855 598.521,321.855 603,327.5C 603.667,328.167 603.667,328.833 603,329.5C 598.04,324.943 592.54,321.276 586.5,318.5 Z"/></g>
<g><path style="opacity:1" fill="none" d="M 818.5,322.5 C 817.833,322.5 817.5,322.833 817.5,323.5C 815.554,322.746 814.721,321.412 815,319.5C 816.518,320.163 817.685,321.163 818.5,322.5 Z"/></g>
<g><path style="opacity:1" fill="#e8e7e6" d="M 258.5,317.5 C 259.492,317.328 260.158,317.662 260.5,318.5C 241.253,326.803 221.253,333.136 200.5,337.5C 200.611,336.883 200.944,336.383 201.5,336C 204.226,335.818 206.893,335.318 209.5,334.5C 208.167,333.5 208.167,332.5 209.5,331.5C 208.418,331.251 207.085,331.085 205.5,331C 205.833,330.667 206.167,330.333 206.5,330C 203.183,329.502 199.85,329.335 196.5,329.5C 207.358,328.009 218.358,326.509 229.5,325C 239.123,322.344 248.79,319.844 258.5,317.5 Z"/></g>
<g><path style="opacity:1" fill="none" d="M 609.5,315.5 C 616.447,318.277 622.447,322.444 627.5,328C 626.833,328.667 626.167,328.667 625.5,328C 621.689,324.26 617.356,321.26 612.5,319C 610.937,318.241 609.937,317.074 609.5,315.5 Z"/></g>
<g><path style="opacity:1" fill="#e8e8e6" d="M 353.5,323.5 C 361.335,325.418 369.335,326.418 377.5,326.5C 387.959,326.082 398.292,325.248 408.5,324C 398.656,329.393 388.156,332.56 377,333.5C 367.68,333.247 359.847,329.913 353.5,323.5 Z"/></g>
<g><path style="opacity:1" fill="none" d="M 952.5,328.5 C 951.833,328.5 951.5,328.833 951.5,329.5C 950.027,328.928 948.693,328.095 947.5,327C 949.535,326.401 951.201,326.901 952.5,328.5 Z"/></g>
<g><path style="opacity:1" fill="none" d="M 673.5,335.5 C 675.288,334.378 677.288,334.211 679.5,335C 678.437,336.188 677.103,336.688 675.5,336.5C 675.158,335.662 674.492,335.328 673.5,335.5 Z"/></g>
<g><path style="opacity:1" fill="#e7e6e5" d="M 817.5,323.5 C 817.5,322.833 817.833,322.5 818.5,322.5C 834.984,332.052 852.65,338.552 871.5,342C 863.269,344.869 854.936,345.202 846.5,343C 835.492,338.496 825.825,331.996 817.5,323.5 Z"/></g>
<g><path style="opacity:1" fill="none" d="M 558.5,333.5 C 565.76,332.602 572.093,334.935 577.5,340.5C 577.167,340.833 576.833,341.167 576.5,341.5C 570.98,337.74 564.98,335.073 558.5,333.5 Z"/></g>
<g><path style="opacity:1" fill="#d0d1d1" d="M 673.5,335.5 C 674.492,335.328 675.158,335.662 675.5,336.5C 668.127,339.02 661.127,342.353 654.5,346.5C 654.167,346.333 653.833,346.167 653.5,346C 659.19,340.655 665.856,337.155 673.5,335.5 Z"/></g>
<g><path style="opacity:1" fill="#e6e6e4" d="M 951.5,329.5 C 951.5,328.833 951.833,328.5 952.5,328.5C 971.492,335.49 990.825,340.824 1010.5,344.5C 1008.8,344.34 1007.13,344.506 1005.5,345C 1008.06,345.763 1008.06,346.263 1005.5,346.5C 1003.53,345.669 1001.53,345.502 999.5,346C 999.167,347 998.833,348 998.5,349C 1000.32,349.2 1001.65,350.034 1002.5,351.5C 984.691,346.097 967.691,338.764 951.5,329.5 Z"/></g>
<g><path style="opacity:1" fill="none" d="M 542.5,343.5 C 552.477,346.832 561.144,352.165 568.5,359.5C 567.998,360.521 567.332,360.688 566.5,360C 560.834,355.831 554.834,352.165 548.5,349C 545.957,347.618 543.957,345.785 542.5,343.5 Z"/></g>
<g><path style="opacity:1" fill="none" d="M 694.5,344.5 C 695.552,344.351 696.552,344.517 697.5,345C 688.793,350.518 679.793,355.185 670.5,359C 677.798,352.858 685.798,348.024 694.5,344.5 Z"/></g>
<g><path style="opacity:1" fill="#ebebea" d="M 412.5,359.5 C 406.122,359.705 399.789,359.372 393.5,358.5C 393.5,357.5 393.5,356.5 393.5,355.5C 399.026,355.821 404.36,355.488 409.5,354.5C 418.544,352.655 427.544,350.488 436.5,348C 429.102,353.2 421.102,357.033 412.5,359.5 Z"/></g>
<g><path style="opacity:1" fill="none" d="M 409.5,354.5 C 404.36,355.488 399.026,355.821 393.5,355.5C 391.265,355.205 389.265,355.539 387.5,356.5C 386.957,356.44 386.624,356.107 386.5,355.5C 394.138,354.503 401.804,354.169 409.5,354.5 Z"/></g>
<g><path style="opacity:1" fill="none" d="M 594.5,349.5 C 598.825,352.967 601.659,357.3 603,362.5C 599.15,358.793 596.317,354.46 594.5,349.5 Z"/></g>
<g><path style="opacity:1" fill="none" d="M 623.5,352.5 C 624.239,352.369 624.906,352.536 625.5,353C 622.996,357.845 621.496,363.012 621,368.5C 619.833,362.789 620.667,357.456 623.5,352.5 Z"/></g>
<g><path style="opacity:1" fill="none" d="M 387.5,356.5 C 389.265,355.539 391.265,355.205 393.5,355.5C 393.5,356.5 393.5,357.5 393.5,358.5C 399.789,359.372 406.122,359.705 412.5,359.5C 407.015,360.652 401.349,360.818 395.5,360C 392.562,359.304 389.896,358.138 387.5,356.5 Z"/></g>
<g><path style="opacity:1" fill="none" d="M 1026.5,357.5 C 1029.15,357.41 1031.49,358.076 1033.5,359.5C 1030.85,359.59 1028.51,358.924 1026.5,357.5 Z"/></g>
<g><path style="opacity:1" fill="#e8e8e8" d="M 250.5,375.5 C 251.823,373.314 253.823,371.814 256.5,371C 254.009,370.374 254.009,369.541 256.5,368.5C 256,368.167 255.5,367.833 255,367.5C 250.339,370.013 245.506,370.679 240.5,369.5C 263.004,361.574 284.67,352.074 305.5,341C 288.862,355.124 270.529,366.624 250.5,375.5 Z"/></g>
<g><path style="opacity:1" fill="#efefee" d="M 713.5,348.5 C 714.678,355.131 712.678,360.964 707.5,366C 702.672,369.581 697.672,372.915 692.5,376C 681.227,381.632 670.227,387.632 659.5,394C 652.543,398.788 647.21,404.955 643.5,412.5C 643.469,407.717 644.635,403.051 647,398.5C 653.915,389.583 662.082,382.083 671.5,376C 682.653,370.923 693.653,365.59 704.5,360C 708.503,356.845 711.503,353.012 713.5,348.5 Z"/></g>
<g><path style="opacity:1" fill="#e7e7e6" d="M 959.5,377.5 C 958.141,378.007 957.141,379.007 956.5,380.5C 955.304,380.154 955.304,379.654 956.5,379C 953.69,378.09 951.69,378.923 950.5,381.5C 936.506,372.351 923.506,361.851 911.5,350C 926.597,360.393 942.597,369.56 959.5,377.5 Z"/></g>
<g><path style="opacity:1" fill="#eaeae9" d="M 833.5,366.5 C 828.653,367.619 823.653,367.619 818.5,366.5C 814.577,365.205 810.91,363.372 807.5,361C 803,356.5 798.5,352 794,347.5C 793.312,346.668 793.479,346.002 794.5,345.5C 806.226,354.863 819.226,361.863 833.5,366.5 Z"/></g>
<g><path style="opacity:1" fill="none" d="M 507.5,372.5 C 506.833,370.167 506.167,367.833 505.5,365.5C 505.369,364.624 505.702,363.957 506.5,363.5C 507.484,366.428 507.817,369.428 507.5,372.5 Z"/></g>
<g><path style="opacity:1" fill="none" d="M 818.5,366.5 C 823.653,367.619 828.653,367.619 833.5,366.5C 834.043,366.56 834.376,366.893 834.5,367.5C 832.333,367.833 830.167,368.167 828,368.5C 824.523,368.672 821.356,368.006 818.5,366.5 Z"/></g>
<g><path style="opacity:1" fill="none" d="M 200.5,372.5 C 207.123,373.38 213.789,373.713 220.5,373.5C 214.681,374.653 208.681,374.819 202.5,374C 201.584,373.722 200.918,373.222 200.5,372.5 Z"/></g>
<g><path style="opacity:1" fill="#eeeeed" d="M 593.5,407.5 C 593.5,408.167 593.167,408.5 592.5,408.5C 587.402,401.567 581.402,395.4 574.5,390C 560.992,382.412 547.326,375.079 533.5,368C 526.267,360.968 523.434,352.468 525,342.5C 527.725,348.786 531.558,354.286 536.5,359C 550.794,366.48 564.794,374.48 578.5,383C 586.453,389.413 591.453,397.58 593.5,407.5 Z"/></g>
<g><path style="opacity:1" fill="#e6e6e5" d="M 454.5,369.5 C 455.239,369.369 455.906,369.536 456.5,370C 447.404,381.724 435.737,385.724 421.5,382C 429.749,380.514 437.749,378.181 445.5,375C 448.898,373.643 451.898,371.81 454.5,369.5 Z"/></g>
<g><path style="opacity:1" fill="none" d="M 718.5,371.5 C 719.376,371.369 720.043,371.702 720.5,372.5C 717.889,377.905 714.222,382.405 709.5,386C 708.241,386.982 706.908,387.315 705.5,387C 710.067,381.941 714.401,376.774 718.5,371.5 Z"/></g>
<g><path style="opacity:1" fill="none" d="M 518.5,371.5 C 521.896,376.398 525.896,380.898 530.5,385C 523.963,382.953 519.963,378.453 518.5,371.5 Z"/></g>
<g><path style="opacity:1" fill="none" d="M 886.5,379.5 C 885.662,379.842 885.328,380.508 885.5,381.5C 882.343,378.85 880.51,375.517 880,371.5C 882.001,374.331 884.167,376.997 886.5,379.5 Z"/></g>
<g><path style="opacity:1" fill="none" d="M 586.5,369.5 C 590.576,373.09 593.743,377.423 596,382.5C 596.667,384.167 596.667,385.833 596,387.5C 592.574,381.591 589.408,375.591 586.5,369.5 Z"/></g>
<g><path style="opacity:1" fill="#e5e4e3" d="M 771.5,366.5 C 780.269,375.058 790.269,381.891 801.5,387C 786.62,387.388 776.62,380.555 771.5,366.5 Z"/></g>
<g><path style="opacity:1" fill="none" d="M 645.5,370.5 C 646.239,370.369 646.906,370.536 647.5,371C 643.957,375.916 640.79,381.083 638,386.5C 638.584,380.329 641.084,374.996 645.5,370.5 Z"/></g>
<g><path style="opacity:1" fill="#ebebea" d="M 295.5,406.5 C 292.889,404.555 290.555,402.222 288.5,399.5C 297.105,394.86 305.438,389.693 313.5,384C 323.626,375.843 333.626,367.843 343.5,360C 329.258,377.41 313.258,392.91 295.5,406.5 Z"/></g>
<g><path style="opacity:1" fill="none" d="M 504.5,385.5 C 503.515,389.634 503.182,393.968 503.5,398.5C 502.188,393.985 502.188,389.318 503.5,384.5C 504.107,384.624 504.44,384.957 504.5,385.5 Z"/></g>
<g><path style="opacity:1" fill="#efefee" d="M 886.5,379.5 C 898.036,391.705 911.036,402.038 925.5,410.5C 922.884,411.526 920.55,410.859 918.5,408.5C 917.494,408.938 917.494,409.604 918.5,410.5C 916.668,411.057 915.335,412.057 914.5,413.5C 903.383,404.055 893.717,393.388 885.5,381.5C 885.328,380.508 885.662,379.842 886.5,379.5 Z"/></g>
<g><path style="opacity:1" fill="#eae9e8" d="M 505.5,365.5 C 506.167,367.833 506.833,370.167 507.5,372.5C 507.486,380.678 509.486,388.345 513.5,395.5C 512.833,396.833 512.167,396.833 511.5,395.5C 509.141,392.149 506.808,388.815 504.5,385.5C 504.44,384.957 504.107,384.624 503.5,384.5C 502.188,389.318 502.188,393.985 503.5,398.5C 504.994,405.823 508.328,412.156 513.5,417.5C 513.167,417.833 512.833,418.167 512.5,418.5C 508.894,416.397 505.727,413.731 503,410.5C 502.262,414.402 502.928,418.068 505,421.5C 509.563,428.571 515.73,433.571 523.5,436.5C 522.791,437.404 521.791,437.737 520.5,437.5C 518.051,436.943 515.718,436.943 513.5,437.5C 517.264,444.099 522.264,449.599 528.5,454C 531.892,456.694 535.559,458.86 539.5,460.5C 539.5,461.167 539.167,461.5 538.5,461.5C 520.28,455.781 508.114,443.781 502,425.5C 496.489,405.065 497.656,385.065 505.5,365.5 Z"/></g>
<g><path style="opacity:1" fill="#efefef" d="M 635.5,481.5 C 634.095,483.225 633.595,485.225 634,487.5C 635.045,486.627 635.878,485.627 636.5,484.5C 642.493,476.644 650.16,471.477 659.5,469C 646.954,477.213 636.787,487.713 629,500.5C 626.125,507.513 622.292,513.847 617.5,519.5C 612.868,510.241 607.701,501.241 602,492.5C 594.341,483.499 585.508,475.999 575.5,470C 586.25,472.645 595.083,478.478 602,487.5C 600.358,480.93 598.691,474.263 597,467.5C 592.418,463.455 587.251,460.289 581.5,458C 573.714,455.517 566.047,452.85 558.5,450C 570.143,450.179 580.143,446.345 588.5,438.5C 588.161,444.049 585.161,447.883 579.5,450C 585.458,452.646 591.124,455.812 596.5,459.5C 597.503,454.828 598.503,450.161 599.5,445.5C 593.418,427.823 598.085,413.656 613.5,403C 621.36,401.167 627.527,403.667 632,410.5C 635.186,414.873 637.853,419.54 640,424.5C 640.667,428.833 640.667,433.167 640,437.5C 635.646,444.79 635.646,452.123 640,459.5C 644.637,455.764 649.804,452.93 655.5,451C 650.641,449.496 648.141,446.329 648,441.5C 656.786,447.65 666.619,450.817 677.5,451C 669.157,453.561 660.824,456.227 652.5,459C 647.508,461.161 642.841,463.828 638.5,467C 637.704,471.852 636.704,476.685 635.5,481.5 Z"/></g>
<g><path style="opacity:1" fill="#e7e7e6" d="M 731.5,370.5 C 743.66,402.001 737.993,430.168 714.5,455C 706.609,461.115 697.942,465.948 688.5,469.5C 687.167,468.833 687.167,468.167 688.5,467.5C 702.738,461.426 714.071,451.926 722.5,439C 719.514,439.128 716.514,439.128 713.5,439C 721.244,434.71 727.077,428.543 731,420.5C 731.781,419.056 731.614,417.723 730.5,416.5C 726.965,418.402 723.298,419.569 719.5,420C 729.55,412.734 734.383,402.9 734,390.5C 730.833,394.333 727.667,398.167 724.5,402C 723.668,402.688 723.002,402.521 722.5,401.5C 727.327,391.687 730.327,381.354 731.5,370.5 Z"/></g>
<g><path style="opacity:1" fill="none" d="M 593.5,407.5 C 595.099,408.799 595.599,410.465 595,412.5C 593.905,411.307 593.072,409.973 592.5,408.5C 593.167,408.5 593.5,408.167 593.5,407.5 Z"/></g>
<g><path style="opacity:1" fill="none" d="M 825.5,417.5 C 824.662,417.842 824.328,418.508 824.5,419.5C 822.599,417.065 821.933,414.398 822.5,411.5C 824.038,413.243 825.038,415.243 825.5,417.5 Z"/></g>
<g><path style="opacity:1" fill="#ebebea" d="M 543.5,382.5 C 546.919,383.708 550.253,385.208 553.5,387C 548.06,389.54 545.727,393.873 546.5,400C 547.196,412.69 553.863,418.023 566.5,416C 570.906,414.353 573.239,411.187 573.5,406.5C 576.571,405.925 578.571,407.091 579.5,410C 574.653,420.744 566.319,425.078 554.5,423C 541.8,416.767 536.633,406.6 539,392.5C 539.836,388.809 541.336,385.476 543.5,382.5 Z"/></g>
<g><path style="opacity:1" fill="#eeeeed" d="M 690.5,384.5 C 691.675,384.281 692.675,384.614 693.5,385.5C 700.4,398.961 698.4,410.794 687.5,421C 679.313,426.455 670.98,426.788 662.5,422C 659.43,419.1 657.43,415.6 656.5,411.5C 657.36,409.728 658.693,408.395 660.5,407.5C 664.223,417.693 671.223,420.859 681.5,417C 688.349,411.788 690.849,404.955 689,396.5C 688.058,393.399 686.224,391.066 683.5,389.5C 686.077,388.057 688.41,386.39 690.5,384.5 Z"/></g>
<g><path style="opacity:1" fill="#ececec" d="M 335.5,441.5 C 333.244,442.438 330.91,442.438 328.5,441.5C 328.383,439.516 329.05,437.85 330.5,436.5C 327.274,435.123 326.941,433.457 329.5,431.5C 330.696,431.846 330.696,432.346 329.5,433C 330.167,433.667 330.833,433.667 331.5,433C 334.032,430.553 336.366,427.886 338.5,425C 336.804,423.824 335.138,422.657 333.5,421.5C 347.24,410.759 358.907,398.092 368.5,383.5C 369.359,382.226 370.026,382.392 370.5,384C 360.771,403.736 347.938,421.236 332,436.5C 332.112,438.797 333.278,440.464 335.5,441.5 Z"/></g>
<g><path style="opacity:1" fill="#e0e0de" d="M 871.5,419.5 C 868.617,417.651 866.617,418.318 865.5,421.5C 858.531,412.895 853.697,403.228 851,392.5C 856.514,402.512 863.347,411.512 871.5,419.5 Z"/></g>
<g><path style="opacity:1" fill="none" d="M 937.5,414.5 C 944.131,415.331 950.798,415.664 957.5,415.5C 954.854,416.164 952.021,416.498 949,416.5C 944.867,416.714 941.034,416.048 937.5,414.5 Z"/></g>
<g><path style="opacity:1" fill="none" d="M 482.5,440.5 C 481.833,434.5 481.167,428.5 480.5,422.5C 480.215,420.712 480.548,419.045 481.5,417.5C 482.497,425.138 482.831,432.804 482.5,440.5 Z"/></g>
<g><path style="opacity:1" fill="#e8e7e7" d="M 385.5,435.5 C 385.778,433.654 385.111,432.32 383.5,431.5C 382.066,432.936 380.9,434.602 380,436.5C 379.583,435.244 378.75,434.577 377.5,434.5C 385.979,424.676 393.312,414.009 399.5,402.5C 396.344,413.85 391.677,424.85 385.5,435.5 Z"/></g>
<g><path style="opacity:1" fill="#161616" d="M 613.5,424.5 C 620.433,424.713 626.6,427.046 632,431.5C 633.707,448.026 631.373,448.693 625,433.5C 621.644,428.466 617.477,427.466 612.5,430.5C 610.065,434.372 607.898,438.372 606,442.5C 604.682,439.57 604.015,436.57 604,433.5C 607.062,430.268 610.229,427.268 613.5,424.5 Z"/></g>
<g><path style="opacity:1" fill="none" d="M 523.5,436.5 C 524.756,436.461 525.756,436.961 526.5,438C 524.288,438.789 522.288,438.622 520.5,437.5C 521.791,437.737 522.791,437.404 523.5,436.5 Z"/></g>
<g><path style="opacity:1" fill="none" d="M 806.5,453.5 C 805.883,453.611 805.383,453.944 805,454.5C 803.667,452.5 802.333,450.5 801,448.5C 800.722,449.416 800.222,450.082 799.5,450.5C 795.649,442.739 793.483,434.406 793,425.5C 797.255,435.008 801.755,444.341 806.5,453.5 Z"/></g>
<g><path style="opacity:1" fill="#0a0a09" d="M 616.5,438.5 C 621.727,440.557 625.56,444.223 628,449.5C 633.965,471.339 630.465,491.672 617.5,510.5C 606.618,492.488 603.118,473.155 607,452.5C 609.606,447.405 612.772,442.738 616.5,438.5 Z"/></g>
<g><path style="opacity:1" fill="none" d="M 771.5,449.5 C 770.515,453.634 770.182,457.968 770.5,462.5C 769.188,457.985 769.188,453.318 770.5,448.5C 771.107,448.624 771.44,448.957 771.5,449.5 Z"/></g>
<g><path style="opacity:1" fill="none" d="M 539.5,460.5 C 541.512,461.228 543.512,462.062 545.5,463C 542.942,463.275 540.608,462.775 538.5,461.5C 539.167,461.5 539.5,461.167 539.5,460.5 Z"/></g>
<g><path style="opacity:1" fill="#e6e6e5" d="M 480.5,422.5 C 481.167,428.5 481.833,434.5 482.5,440.5C 483.099,447.911 484.265,455.244 486,462.5C 487.752,465.672 489.752,468.672 492,471.5C 490.623,464.186 491.623,457.186 495,450.5C 494.633,463.567 498.133,475.4 505.5,486C 498.874,485.095 493.374,481.928 489,476.5C 483.108,468.494 479.774,459.494 479,449.5C 478.073,440.366 478.573,431.366 480.5,422.5 Z"/></g>
<g><path style="opacity:1" fill="none" d="M 769.5,470.5 C 767.052,471.473 764.385,471.806 761.5,471.5C 761.737,472.791 761.404,473.791 760.5,474.5C 760.5,473.167 760.5,471.833 760.5,470.5C 763.5,470.5 766.5,470.5 769.5,470.5 Z"/></g>
<g><path style="opacity:1" fill="none" d="M 521.5,478.5 C 520.833,477.167 520.167,475.833 519.5,474.5C 519.369,473.624 519.702,472.957 520.5,472.5C 521.466,474.396 521.799,476.396 521.5,478.5 Z"/></g>
<g><path style="opacity:1" fill="#e9e9e8" d="M 752.5,431.5 C 755.393,451.597 750.893,469.93 739,486.5C 734.854,491.654 729.854,495.654 724,498.5C 723.5,498.167 723,497.833 722.5,497.5C 724.813,492.459 726.313,487.126 727,481.5C 727.88,473.15 728.88,464.817 730,456.5C 731.163,458.285 731.83,460.285 732,462.5C 732.333,469.833 732.667,477.167 733,484.5C 744.831,468.872 751.331,451.205 752.5,431.5 Z"/></g>
<g><path style="opacity:1" fill="none" d="M 635.5,481.5 C 635.263,482.791 635.596,483.791 636.5,484.5C 635.878,485.627 635.045,486.627 634,487.5C 633.595,485.225 634.095,483.225 635.5,481.5 Z"/></g>
<g><path style="opacity:1" fill="#e3e3e2" d="M 519.5,474.5 C 520.167,475.833 520.833,477.167 521.5,478.5C 522.88,487.647 526.214,495.98 531.5,503.5C 530.998,504.521 530.332,504.688 529.5,504C 519.736,496.313 516.402,486.479 519.5,474.5 Z"/></g>
<g><path style="opacity:1" fill="#e0e0df" d="M 707.5,483.5 C 712.145,497.975 707.812,509.309 694.5,517.5C 694.167,517.333 693.833,517.167 693.5,517C 701.61,507.28 706.276,496.113 707.5,483.5 Z"/></g>
<g><path style="opacity:1" fill="none" d="M 550.5,495.5 C 553.42,505.156 558.754,513.323 566.5,520C 554.347,516.574 549.014,508.408 550.5,495.5 Z"/></g>
<g><path style="opacity:1" fill="#0c0c0b" d="M 755.5,493.5 C 752.762,501.612 750.095,509.779 747.5,518C 748.101,519.605 749.101,520.938 750.5,522C 787.169,550.668 825.835,576.335 866.5,599C 857.79,611.742 845.79,616.575 830.5,613.5C 806.361,599.917 783.694,584.084 762.5,566C 755.167,560 748.5,553.333 742.5,546C 741.833,545.333 741.167,545.333 740.5,546C 764.326,575.337 791.992,600.17 823.5,620.5C 824.091,621.151 824.757,621.818 825.5,622.5C 821.836,628.512 816.503,632.346 809.5,634C 800.752,636.633 792.419,635.8 784.5,631.5C 767.342,619.183 751.842,604.85 738,588.5C 749.323,606.352 762.823,622.685 778.5,637.5C 780.113,638.838 780.613,640.505 780,642.5C 770.749,647.275 760.916,648.775 750.5,647C 745.554,645.194 740.888,642.861 736.5,640C 730.957,634.126 725.79,627.959 721,621.5C 720.518,630.065 722.518,638.065 727,645.5C 747.82,661.114 752.82,680.78 742,704.5C 734.027,717.403 722.527,723.236 707.5,722C 706.328,721.581 705.328,720.915 704.5,720C 718.74,714.38 722.406,704.88 715.5,691.5C 713.203,688.529 710.203,686.862 706.5,686.5C 705.726,685.853 704.726,685.52 703.5,685.5C 701.645,685.34 700.312,686.007 699.5,687.5C 695.644,695.228 691.477,702.894 687,710.5C 681.872,731.479 668.705,739.979 647.5,736C 645.993,735.163 645.493,733.996 646,732.5C 654.847,729.653 661.181,723.987 665,715.5C 666.672,705.195 666.839,694.861 665.5,684.5C 661.483,689.677 656.15,692.51 649.5,693C 644.745,695.732 642.745,699.899 643.5,705.5C 643.374,708.87 644.04,712.037 645.5,715C 643.322,715.165 641.489,714.332 640,712.5C 631.288,700.451 630.288,687.784 637,674.5C 642.825,669.187 647.992,663.52 652.5,657.5C 653.165,654.686 653.498,651.686 653.5,648.5C 653.722,644.203 653.055,640.203 651.5,636.5C 651.567,635.041 651.234,633.708 650.5,632.5C 650.174,625.399 650.84,618.399 652.5,611.5C 652.457,610.584 652.124,609.917 651.5,609.5C 651.56,608.957 651.893,608.624 652.5,608.5C 653.655,611.389 655.322,613.889 657.5,616C 656.167,616.333 654.833,616.667 653.5,617C 653.324,618.66 653.991,620.326 655.5,622C 655.193,623.682 654.86,625.348 654.5,627C 657.225,629.437 656.892,631.437 653.5,633C 655.167,634.667 656.833,636.333 658.5,638C 657.376,638.249 656.376,638.749 655.5,639.5C 656.812,644.364 656.812,649.197 655.5,654C 656.025,654.692 656.692,655.192 657.5,655.5C 658.732,654.855 660.065,654.689 661.5,655C 661.736,652.686 661.736,650.52 661.5,648.5C 663.592,650.789 663.926,653.289 662.5,656C 663.449,656.617 664.282,656.451 665,655.5C 665,654.167 665,652.833 665,651.5C 665.74,653.319 666.907,654.652 668.5,655.5C 667.671,658.469 667.505,661.469 668,664.5C 673.146,653.308 680.479,651.642 690,659.5C 691.846,662.569 692.846,665.902 693,669.5C 693.839,664.079 693.506,658.746 692,653.5C 687.386,647.652 681.553,645.985 674.5,648.5C 674.167,648.5 673.833,648.5 673.5,648.5C 674.453,646.39 676.119,645.223 678.5,645C 688.387,643.609 695.387,647.443 699.5,656.5C 701.176,640.682 694.176,634.515 678.5,638C 674.418,640.905 671.751,644.738 670.5,649.5C 670.167,649.5 669.833,649.5 669.5,649.5C 668.522,649.189 667.855,648.522 667.5,647.5C 669.385,646.803 669.718,645.803 668.5,644.5C 669.791,643.175 671.124,641.842 672.5,640.5C 673.17,638.709 673.837,637.042 674.5,635.5C 674.369,636.239 674.536,636.906 675,637.5C 676.41,636.213 677.91,635.046 679.5,634C 683.821,633.501 688.154,633.334 692.5,633.5C 697.122,635.406 700.955,638.406 704,642.5C 704.532,635.186 701.698,629.52 695.5,625.5C 696.151,624.909 696.818,624.243 697.5,623.5C 698.981,624.48 700.315,625.647 701.5,627C 702.167,627.667 702.833,627.667 703.5,627C 701.446,625.318 701.779,623.651 704.5,622C 703.332,620.594 703.665,619.428 705.5,618.5C 704.233,616.629 704.233,614.796 705.5,613C 703.381,610.204 702.048,607.037 701.5,603.5C 698.418,602.87 695.418,601.87 692.5,600.5C 693.246,599.264 693.579,597.93 693.5,596.5C 700.41,599.039 705.91,603.372 710,609.5C 710.596,601.911 707.096,597.245 699.5,595.5C 699.5,595.167 699.5,594.833 699.5,594.5C 701.371,594.141 702.871,593.141 704,591.5C 704.333,592.167 704.667,592.833 705,593.5C 706.436,589.37 708.77,585.703 712,582.5C 712.743,584.645 713.576,584.811 714.5,583C 714.618,581.101 714.118,579.267 713,577.5C 711.383,578.536 711.216,579.703 712.5,581C 709.862,583.108 707.528,582.941 705.5,580.5C 706.262,580.089 707.262,579.923 708.5,580C 707.586,577.403 705.919,577.07 703.5,579C 703.957,579.414 704.291,579.914 704.5,580.5C 703.635,581.583 702.635,581.749 701.5,581C 702.791,579.708 702.791,578.542 701.5,577.5C 706.268,574.288 708.602,569.955 708.5,564.5C 706.528,569.127 703.528,572.793 699.5,575.5C 699.561,573.408 700.561,571.908 702.5,571C 698.692,567.641 699.026,567.141 703.5,569.5C 703.795,565.713 706.128,563.546 710.5,563C 709.354,560.443 710.354,559.11 713.5,559C 710.965,558.383 708.632,558.883 706.5,560.5C 705.38,559.167 704.047,558.667 702.5,559C 703.591,561.064 703.758,563.231 703,565.5C 701.25,562.754 700.25,559.754 700,556.5C 698.989,555.663 697.822,555.33 696.5,555.5C 696.853,557.635 696.02,558.968 694,559.5C 690.981,558.845 689.148,557.512 688.5,555.5C 687.252,557.459 685.585,558.959 683.5,560C 684.167,560.333 684.833,560.667 685.5,561C 683.444,561.311 681.444,561.811 679.5,562.5C 678.735,561.388 677.735,560.721 676.5,560.5C 683.585,557.083 688.585,551.749 691.5,544.5C 691.343,545.873 691.51,547.207 692,548.5C 693.666,547.66 693.833,548.16 692.5,550C 694.473,550.495 696.473,550.662 698.5,550.5C 698.662,552.824 699.828,554.491 702,555.5C 703.578,554.289 703.745,552.955 702.5,551.5C 701.391,552.59 700.391,552.59 699.5,551.5C 701.813,550.727 704.146,550.06 706.5,549.5C 706.833,549.833 707.167,550.167 707.5,550.5C 706.5,551.333 705.5,552.167 704.5,553C 707.458,553.015 709.792,551.681 711.5,549C 710.069,548.535 708.903,547.701 708,546.5C 705.945,547.495 704.779,546.662 704.5,544C 704.828,542.249 705.495,542.249 706.5,544C 711.001,544.663 711.335,544.163 707.5,542.5C 707.624,541.893 707.957,541.56 708.5,541.5C 712.97,540.984 716.803,538.651 720,534.5C 722.845,529.799 725.012,524.799 726.5,519.5C 727.167,519.5 727.5,519.167 727.5,518.5C 729.512,519.014 731.512,519.18 733.5,519C 734.974,516.256 735.807,513.423 736,510.5C 738.737,511.61 741.571,511.777 744.5,511C 743.724,509.23 743.89,507.397 745,505.5C 745.833,506.5 746.667,507.5 747.5,508.5C 748.167,504.167 748.833,499.833 749.5,495.5C 750.425,494.359 751.259,494.359 752,495.5C 752.335,492.81 753.501,492.143 755.5,493.5 Z"/></g>
<g><path style="opacity:1" fill="none" d="M 679.5,501.5 C 680.739,509.571 678.072,516.405 671.5,522C 668.966,523.934 666.299,525.268 663.5,526C 671.231,519.365 676.564,511.199 679.5,501.5 Z"/></g>
<g><path style="opacity:1" fill="none" d="M 727.5,518.5 C 727.5,519.167 727.167,519.5 726.5,519.5C 726.802,516.941 726.468,514.607 725.5,512.5C 725.281,511.325 725.614,510.325 726.5,509.5C 727.484,512.428 727.817,515.428 727.5,518.5 Z"/></g>
<g><path style="opacity:1" fill="#e5e5e4" d="M 488.5,491.5 C 492.414,503.493 498.08,514.66 505.5,525C 503.711,525.52 502.044,525.187 500.5,524C 491.253,515.093 487.253,504.259 488.5,491.5 Z"/></g>
<g><path style="opacity:1" fill="none" d="M 651.5,514.5 C 651.709,524.561 647.043,531.395 637.5,535C 643.981,529.361 648.648,522.528 651.5,514.5 Z"/></g>
<g><path style="opacity:1" fill="none" d="M 582.5,511.5 C 586.163,518.289 590.496,524.789 595.5,531C 592.564,530.107 590.064,528.274 588,525.5C 585.316,521.137 583.482,516.47 582.5,511.5 Z"/></g>
<g><path style="opacity:1" fill="none" d="M 511.5,507.5 C 514.358,517.38 519.025,526.547 525.5,535C 516.063,531.511 511.063,524.511 510.5,514C 510.653,511.784 510.986,509.617 511.5,507.5 Z"/></g>
<g><path style="opacity:1" fill="none" d="M 725.5,512.5 C 726.468,514.607 726.802,516.941 726.5,519.5C 725.012,524.799 722.845,529.799 720,534.5C 716.803,538.651 712.97,540.984 708.5,541.5C 715.971,532.892 721.638,523.225 725.5,512.5 Z"/></g>
<g><path style="opacity:1" fill="none" d="M 540.5,525.5 C 543.508,531.192 546.341,537.192 549,543.5C 551.713,547.092 554.547,550.592 557.5,554C 550.144,550.644 544.644,545.144 541,537.5C 540.501,533.514 540.334,529.514 540.5,525.5 Z"/></g>
<g><path style="opacity:1" fill="none" d="M 691.5,544.5 C 688.585,551.749 683.585,557.083 676.5,560.5C 675.624,560.631 674.957,560.298 674.5,559.5C 682.052,553.402 687.385,545.736 690.5,536.5C 691.48,539.086 691.813,541.753 691.5,544.5 Z"/></g>
<g><path style="opacity:1" fill="none" d="M 503.5,558.5 C 502.833,554.5 502.167,550.5 501.5,546.5C 501.369,545.624 501.702,544.957 502.5,544.5C 503.493,549.12 503.827,553.786 503.5,558.5 Z"/></g>
<g><path style="opacity:1" fill="#d1d1d0" d="M 572.5,543.5 C 576.385,548.103 580.385,552.603 584.5,557C 586.5,558.333 588.5,559.667 590.5,561C 580.838,559.174 574.838,553.341 572.5,543.5 Z"/></g>
<g><path style="opacity:1" fill="none" d="M 622.5,553.5 C 623.259,555.666 622.259,557.166 619.5,558C 617.167,558.667 614.833,558.667 612.5,558C 616.042,556.725 619.375,555.225 622.5,553.5 Z"/></g>
<g><path style="opacity:1" fill="#eaeaea" d="M 501.5,546.5 C 502.167,550.5 502.833,554.5 503.5,558.5C 503.58,563.316 504.414,567.983 506,572.5C 507.247,569.671 508.747,567.005 510.5,564.5C 511.167,563.167 511.833,563.167 512.5,564.5C 507.283,575.707 506.116,587.374 509,599.5C 509.717,598.956 510.217,598.289 510.5,597.5C 512.854,596.506 513.854,597.506 513.5,600.5C 511.597,606.124 510.097,611.791 509,617.5C 501.154,597.545 497.821,576.879 499,555.5C 499.685,552.421 500.519,549.421 501.5,546.5 Z"/></g>
<g><path style="opacity:1" fill="none" d="M 661.5,546.5 C 662.043,546.56 662.376,546.893 662.5,547.5C 660.861,552.112 658.694,556.446 656,560.5C 651.847,564.156 647.347,566.49 642.5,567.5C 650.619,562.051 656.952,555.051 661.5,546.5 Z"/></g>
<g><path style="opacity:1" fill="none" d="M 539.5,560.5 C 542.203,565.377 545.536,569.877 549.5,574C 543.441,571.744 540.108,567.244 539.5,560.5 Z"/></g>
<g><path style="opacity:1" fill="none" d="M 701.5,577.5 C 697.538,579.107 696.871,578.441 699.5,575.5C 703.528,572.793 706.528,569.127 708.5,564.5C 708.602,569.955 706.268,574.288 701.5,577.5 Z"/></g>
<g><path style="opacity:1" fill="#eaeae9" d="M 416.5,610.5 C 416.196,609.85 415.863,609.183 415.5,608.5C 418.39,606.957 420.057,604.624 420.5,601.5C 417.365,601.548 415.698,603.215 415.5,606.5C 412.994,608.567 410.327,608.901 407.5,607.5C 435.454,589.737 461.287,569.07 485,545.5C 484.956,547.279 484.289,548.945 483,550.5C 463.434,573.575 441.268,593.575 416.5,610.5 Z"/></g>
<g><path style="opacity:1" fill="none" d="M 572.5,578.5 C 576.38,582.545 580.713,586.045 585.5,589C 578.956,588.294 574.623,584.794 572.5,578.5 Z"/></g>
<g><path style="opacity:1" fill="none" d="M 619.5,583.5 C 620.239,583.369 620.906,583.536 621.5,584C 618.309,588.1 614.309,589.933 609.5,589.5C 613.196,587.99 616.529,585.99 619.5,583.5 Z"/></g>
<g><path style="opacity:1" fill="none" d="M 650.5,582.5 C 651.239,582.369 651.906,582.536 652.5,583C 648.592,587.95 643.592,590.617 637.5,591C 642.279,588.697 646.613,585.864 650.5,582.5 Z"/></g>
<g><path style="opacity:1" fill="none" d="M 513.5,600.5 C 513.854,597.506 512.854,596.506 510.5,597.5C 512.927,590.737 516.927,585.07 522.5,580.5C 522.833,580.833 523.167,581.167 523.5,581.5C 519.216,587.419 515.883,593.752 513.5,600.5 Z"/></g>
<g><path style="opacity:1" fill="none" d="M 699.5,594.5 C 699.5,594.833 699.5,595.167 699.5,595.5C 697.265,595.205 695.265,595.539 693.5,596.5C 692.957,596.44 692.624,596.107 692.5,595.5C 694.743,594.526 697.076,594.192 699.5,594.5 Z"/></g>
<g><path style="opacity:1" fill="#e1e1e1" d="M 693.5,596.5 C 695.265,595.539 697.265,595.205 699.5,595.5C 707.096,597.245 710.596,601.911 710,609.5C 705.91,603.372 700.41,599.039 693.5,596.5 Z"/></g>
<g><path style="opacity:1" fill="#eaebea" d="M 830.5,613.5 C 829.279,614.028 828.113,614.695 827,615.5C 824.214,612.655 822.88,612.989 823,616.5C 823.903,617.701 825.069,618.535 826.5,619C 825.263,619.232 824.263,619.732 823.5,620.5C 791.992,600.17 764.326,575.337 740.5,546C 741.167,545.333 741.833,545.333 742.5,546C 748.5,553.333 755.167,560 762.5,566C 783.694,584.084 806.361,599.917 830.5,613.5 Z"/></g>
<g><path style="opacity:1" fill="#eaeaea" d="M 521.5,633.5 C 520.732,634.263 520.232,635.263 520,636.5C 519.283,631.78 519.45,627.114 520.5,622.5C 522.934,619.562 525.601,616.729 528.5,614C 540.138,609.767 548.138,613.434 552.5,625C 549.258,623.841 545.925,622.508 542.5,621C 531.805,619.013 524.805,623.179 521.5,633.5 Z"/></g>
<g><path style="opacity:1" fill="#eaeaea" d="M 450.5,634.5 C 450.586,633.504 450.252,632.671 449.5,632C 451.844,630.815 452.677,628.982 452,626.5C 450.644,627.38 449.144,627.714 447.5,627.5C 452.429,623.352 457.429,619.185 462.5,615C 471.011,605.968 479.678,597.801 488.5,590.5C 476.903,606.097 464.236,620.763 450.5,634.5 Z"/></g>
<g><path style="opacity:1" fill="none" d="M 620.5,622.5 C 620.5,621.833 620.167,621.5 619.5,621.5C 619.238,620.022 619.571,618.689 620.5,617.5C 621.788,619.299 621.788,620.965 620.5,622.5 Z"/></g>
<g><path style="opacity:1" fill="#ebebeb" d="M 784.5,631.5 C 783.288,633.554 781.621,633.554 779.5,631.5C 779.167,631.833 778.833,632.167 778.5,632.5C 779.167,633.167 779.833,633.833 780.5,634.5C 779.388,635.265 778.721,636.265 778.5,637.5C 762.823,622.685 749.323,606.352 738,588.5C 751.842,604.85 767.342,619.183 784.5,631.5 Z"/></g>
<g><path style="opacity:1" fill="#ebebeb" d="M 525.5,641.5 C 525.5,641.167 525.5,640.833 525.5,640.5C 524.748,625.751 531.415,620.584 545.5,625C 549.443,626.61 552.443,629.277 554.5,633C 552.08,632.975 549.747,632.309 547.5,631C 537.401,628.967 530.568,632.8 527,642.5C 526.617,641.944 526.117,641.611 525.5,641.5 Z"/></g>
<g><path style="opacity:1" fill="none" d="M 651.5,609.5 C 652.124,609.917 652.457,610.584 652.5,611.5C 650.84,618.399 650.174,625.399 650.5,632.5C 649.71,631.391 649.21,630.058 649,628.5C 648,630.167 647,631.833 646,633.5C 645.329,632.748 644.496,632.414 643.5,632.5C 646.162,624.849 648.828,617.183 651.5,609.5 Z"/></g>
<g><path style="opacity:1" fill="#ebebeb" d="M 695.5,625.5 C 701.698,629.52 704.532,635.186 704,642.5C 700.955,638.406 697.122,635.406 692.5,633.5C 688.366,632.515 684.032,632.182 679.5,632.5C 679.5,631.5 679.5,630.5 679.5,629.5C 683.83,624.614 689.163,623.281 695.5,625.5 Z"/></g>
<g><path style="opacity:1" fill="#e0e0e0" d="M 585.5,651.5 C 582.203,651.329 581.869,651.995 584.5,653.5C 583.948,655.003 583.948,656.669 584.5,658.5C 582.304,655.468 580.304,652.301 578.5,649C 582.95,636.266 589.117,624.433 597,613.5C 597.667,614.5 597.667,615.5 597,616.5C 591.484,627.221 586.65,638.221 582.5,649.5C 583.602,650.176 584.602,650.842 585.5,651.5 Z"/></g>
<g><path style="opacity:1" fill="none" d="M 679.5,629.5 C 679.5,630.5 679.5,631.5 679.5,632.5C 684.032,632.182 688.366,632.515 692.5,633.5C 688.154,633.334 683.821,633.501 679.5,634C 677.91,635.046 676.41,636.213 675,637.5C 674.536,636.906 674.369,636.239 674.5,635.5C 675.701,633.091 677.367,631.091 679.5,629.5 Z"/></g>
<g><path style="opacity:1" fill="#eeeeed" d="M 673.5,648.5 C 672.542,648.953 671.708,649.619 671,650.5C 670.601,650.272 670.435,649.938 670.5,649.5C 671.751,644.738 674.418,640.905 678.5,638C 694.176,634.515 701.176,640.682 699.5,656.5C 695.387,647.443 688.387,643.609 678.5,645C 676.119,645.223 674.453,646.39 673.5,648.5 Z"/></g>
<g><path style="opacity:1" fill="#efefef" d="M 517.5,639.5 C 517.815,643.371 517.482,647.038 516.5,650.5C 513.341,648.92 510.007,647.92 506.5,647.5C 508.085,651.011 508.585,654.678 508,658.5C 504.529,654.011 500.029,652.178 494.5,653C 499.46,656.127 503.127,660.294 505.5,665.5C 505.631,666.239 505.464,666.906 505,667.5C 500.001,661.14 493.501,658.807 485.5,660.5C 484.97,655.713 486.137,651.38 489,647.5C 497.209,640.239 506.709,637.573 517.5,639.5 Z"/></g>
<g><path style="opacity:1" fill="none" d="M 619.5,621.5 C 620.167,621.5 620.5,621.833 620.5,622.5C 619.125,630.665 617.125,638.665 614.5,646.5C 616.396,647.466 618.396,647.799 620.5,647.5C 618.393,648.468 616.059,648.802 613.5,648.5C 613.762,647.022 613.429,645.689 612.5,644.5C 611.476,645.853 610.143,646.52 608.5,646.5C 612.616,638.378 616.282,630.045 619.5,621.5 Z"/></g>
<g><path style="opacity:1" fill="none" d="M 651.5,636.5 C 653.055,640.203 653.722,644.203 653.5,648.5C 653.498,651.686 653.165,654.686 652.5,657.5C 651.659,650.535 651.326,643.535 651.5,636.5 Z"/></g>
<g><path style="opacity:1" fill="none" d="M 517.5,639.5 C 518.482,642.962 518.815,646.629 518.5,650.5C 518.214,652.933 517.548,652.933 516.5,650.5C 517.482,647.038 517.815,643.371 517.5,639.5 Z"/></g>
<g><path style="opacity:1" fill="#ecebeb" d="M 555.5,638.5 C 558.369,644.568 561.536,650.568 565,656.5C 566.792,661 567.625,665.667 567.5,670.5C 567.665,673.85 567.498,677.183 567,680.5C 565.418,677.19 564.252,673.857 563.5,670.5C 564.424,664.184 562.424,659.017 557.5,655C 551.613,652.013 547.613,653.513 545.5,659.5C 544.532,661.607 544.198,663.941 544.5,666.5C 543.5,666.5 542.5,666.5 541.5,666.5C 540.655,665.329 539.989,663.995 539.5,662.5C 539.334,658.486 539.501,654.486 540,650.5C 544.366,643.744 549.866,642.744 556.5,647.5C 556.044,645.173 554.377,643.339 551.5,642C 545.704,639.27 540.87,640.437 537,645.5C 535.257,648.957 534.257,652.623 534,656.5C 531.193,648.65 532.36,641.484 537.5,635C 544.372,632.18 550.372,633.347 555.5,638.5 Z"/></g>
<g><path style="opacity:1" fill="none" d="M 673.5,648.5 C 673.833,648.5 674.167,648.5 674.5,648.5C 673.167,650.5 671.5,652.167 669.5,653.5C 669.5,652.167 669.5,650.833 669.5,649.5C 669.833,649.5 670.167,649.5 670.5,649.5C 670.435,649.938 670.601,650.272 671,650.5C 671.708,649.619 672.542,648.953 673.5,648.5 Z"/></g>
<g><path style="opacity:1" fill="#121211" d="M 555.5,638.5 C 550.372,633.347 544.372,632.18 537.5,635C 532.36,641.484 531.193,648.65 534,656.5C 534.257,652.623 535.257,648.957 537,645.5C 540.87,640.437 545.704,639.27 551.5,642C 554.377,643.339 556.044,645.173 556.5,647.5C 549.866,642.744 544.366,643.744 540,650.5C 539.501,654.486 539.334,658.486 539.5,662.5C 538.751,661.469 538.085,660.302 537.5,659C 534.89,658.853 532.556,658.019 530.5,656.5C 529.614,657.325 529.281,658.325 529.5,659.5C 527.403,659.997 525.57,660.33 524,660.5C 522.89,658.963 521.39,658.297 519.5,658.5C 519.778,660.346 519.111,661.68 517.5,662.5C 515.939,661.653 514.439,661.986 513,663.5C 509.624,660.768 507.124,661.435 505.5,665.5C 503.127,660.294 499.46,656.127 494.5,653C 500.029,652.178 504.529,654.011 508,658.5C 508.585,654.678 508.085,651.011 506.5,647.5C 510.007,647.92 513.341,648.92 516.5,650.5C 517.548,652.933 518.214,652.933 518.5,650.5C 519.828,651.91 519.495,653.076 517.5,654C 518.416,654.374 519.25,654.874 520,655.5C 521.368,654.007 521.535,652.507 520.5,651C 522.455,650.047 524.122,648.713 525.5,647C 525.146,645.374 525.146,643.541 525.5,641.5C 526.117,641.611 526.617,641.944 527,642.5C 530.568,632.8 537.401,628.967 547.5,631C 549.747,632.309 552.08,632.975 554.5,633C 552.443,629.277 549.443,626.61 545.5,625C 531.415,620.584 524.748,625.751 525.5,640.5C 524.835,638.631 524.169,636.631 523.5,634.5C 522.817,634.137 522.15,633.804 521.5,633.5C 524.805,623.179 531.805,619.013 542.5,621C 545.925,622.508 549.258,623.841 552.5,625C 548.138,613.434 540.138,609.767 528.5,614C 525.601,616.729 522.934,619.562 520.5,622.5C 519.233,623.087 518.233,623.087 517.5,622.5C 518.373,618.554 520.707,616.054 524.5,615C 523.5,614.667 522.5,614.333 521.5,614C 522.46,612.581 523.293,611.081 524,609.5C 524.333,609.833 524.667,610.167 525,610.5C 525.308,609.692 525.808,609.025 526.5,608.5C 527.854,610.184 529.521,610.684 531.5,610C 532.274,608.157 533.774,606.324 536,604.5C 537.649,606.65 539.482,608.65 541.5,610.5C 545.365,612.025 548.698,614.358 551.5,617.5C 552.907,621.311 555.074,624.645 558,627.5C 558.667,629.5 558.667,631.5 558,633.5C 557.08,633.93 556.247,634.264 555.5,634.5C 556.807,635.865 556.807,637.198 555.5,638.5 Z"/></g>
<g><path style="opacity:1" fill="#ebebea" d="M 668.5,655.5 C 668.328,654.508 668.662,653.842 669.5,653.5C 671.5,652.167 673.167,650.5 674.5,648.5C 681.553,645.985 687.386,647.652 692,653.5C 693.506,658.746 693.839,664.079 693,669.5C 692.846,665.902 691.846,662.569 690,659.5C 680.479,651.642 673.146,653.308 668,664.5C 667.505,661.469 667.671,658.469 668.5,655.5 Z"/></g>
<g><path style="opacity:1" fill="none" d="M 713.5,653.5 C 711.833,653.5 710.167,653.5 708.5,653.5C 707.964,656.698 708.631,659.365 710.5,661.5C 709.321,664.476 707.987,664.809 706.5,662.5C 707.327,659.217 707.66,655.884 707.5,652.5C 709.735,652.205 711.735,652.539 713.5,653.5 Z"/></g>
<g><path style="opacity:1" fill="#e4e4e4" d="M 686.5,693.5 C 685.662,693.158 685.328,692.492 685.5,691.5C 686.273,687.196 686.939,682.863 687.5,678.5C 687.271,672.442 684.271,669.275 678.5,669C 675.108,671.285 673.441,674.452 673.5,678.5C 672.833,681.167 672.167,683.833 671.5,686.5C 668.847,679.375 669.014,672.375 672,665.5C 678,658.833 684,658.833 690,665.5C 692.668,675.332 691.501,684.665 686.5,693.5 Z"/></g>
<g><path style="opacity:1" fill="#eeeeee" d="M 713.5,653.5 C 722.634,654.906 728.967,659.906 732.5,668.5C 731.424,669.656 730.424,669.489 729.5,668C 726.167,667.333 722.833,667.333 719.5,668C 717.951,669.214 716.785,670.714 716,672.5C 715.238,668.668 715.738,665.002 717.5,661.5C 715.141,660.286 712.808,660.286 710.5,661.5C 708.631,659.365 707.964,656.698 708.5,653.5C 710.167,653.5 711.833,653.5 713.5,653.5 Z"/></g>
<g><path style="opacity:1" fill="#e9e9e9" d="M 500.5,675.5 C 500.784,677.415 500.451,679.081 499.5,680.5C 496.418,674.017 492.085,673.017 486.5,677.5C 485.675,679.801 485.008,682.135 484.5,684.5C 483.833,687.833 483.167,691.167 482.5,694.5C 479.43,686.036 479.93,677.703 484,669.5C 492.628,662.897 498.128,664.897 500.5,675.5 Z"/></g>
<g><path style="opacity:1" fill="none" d="M 545.5,659.5 C 545.318,664.999 545.818,670.332 547,675.5C 544.517,672.861 542.684,669.861 541.5,666.5C 542.5,666.5 543.5,666.5 544.5,666.5C 544.198,663.941 544.532,661.607 545.5,659.5 Z"/></g>
<g><path style="opacity:1" fill="#ececeb" d="M 722.5,686.5 C 721.539,684.735 721.205,682.735 721.5,680.5C 722.586,672.42 726.92,670.254 734.5,674C 739.562,679.758 740.729,686.258 738,693.5C 740.08,684.263 736.58,680.096 727.5,681C 725.627,682.704 723.96,684.537 722.5,686.5 Z"/></g>
<g><path style="opacity:1" fill="none" d="M 500.5,675.5 C 501.797,677.693 501.797,680.027 500.5,682.5C 499.702,682.043 499.369,681.376 499.5,680.5C 500.451,679.081 500.784,677.415 500.5,675.5 Z"/></g>
<g><path style="opacity:1" fill="none" d="M 563.5,670.5 C 564.252,673.857 565.418,677.19 567,680.5C 567.498,677.183 567.665,673.85 567.5,670.5C 568.317,672.969 568.817,675.635 569,678.5C 570.045,679.373 570.878,680.373 571.5,681.5C 570.25,681.577 569.417,682.244 569,683.5C 568.692,682.692 568.192,682.025 567.5,681.5C 566.824,682.602 566.158,683.602 565.5,684.5C 565.662,682.473 565.495,680.473 565,678.5C 564.667,679.833 564.333,681.167 564,682.5C 563.501,678.514 563.334,674.514 563.5,670.5 Z"/></g>
<g><path style="opacity:1" fill="none" d="M 673.5,678.5 C 673.817,681.572 673.484,684.572 672.5,687.5C 671.893,687.376 671.56,687.043 671.5,686.5C 672.167,683.833 672.833,681.167 673.5,678.5 Z"/></g>
<g><path style="opacity:1" fill="none" d="M 706.5,686.5 C 704.097,686.448 701.764,686.781 699.5,687.5C 700.312,686.007 701.645,685.34 703.5,685.5C 704.726,685.52 705.726,685.853 706.5,686.5 Z"/></g>
<g><path style="opacity:1" fill="none" d="M 721.5,680.5 C 721.205,682.735 721.539,684.735 722.5,686.5C 722.631,687.376 722.298,688.043 721.5,688.5C 720.2,685.691 720.2,683.024 721.5,680.5 Z"/></g>
<g><path style="opacity:1" fill="none" d="M 685.5,691.5 C 685.328,692.492 685.662,693.158 686.5,693.5C 686.029,694.901 685.362,696.234 684.5,697.5C 684.167,697.167 683.833,696.833 683.5,696.5C 684.028,694.664 684.694,692.997 685.5,691.5 Z"/></g>
<g><path style="opacity:1" fill="none" d="M 484.5,684.5 C 484.223,689.233 484.557,693.9 485.5,698.5C 484.833,699.833 484.167,699.833 483.5,698.5C 482.754,697.264 482.421,695.93 482.5,694.5C 483.167,691.167 483.833,687.833 484.5,684.5 Z"/></g>
</svg>



