<?xml version="1.0" encoding="UTF-8"?>
<svg id="Layer_2" data-name="Layer 2" xmlns="http://www.w3.org/2000/svg" viewBox="0 0 1427.1 796.31">
  <g id="Layer_1-2" data-name="Layer 1">
    <g>
      <path d="M1211.92,155c17.9-3.1,35.63-8.26,52.99-13.51,49.76-15.06,111.79-37.12,144.97-79.03,10.79-13.62,18.58-29.6,17.02-47.47-37.05,22.29-77,40.96-117.02,57.47-62.12,25.63-125.58,46.17-190.95,62.05-48.5,11.78-102.97,17.82-145.93,44.07-28.49,17.41-51.91,42.38-77.61,63.39-22.87,18.69-48.67,38.71-77.01,47.65-60.03-50.32-154.15-53.67-215.93-4.59-7.99,6.35-4.67,9.12-16.79,4.73-52.96-19.19-95.86-74.36-139.82-107.18-46.5-34.71-123.54-44.48-179.68-61.32C172.73,93.25,82.62,55.81,2.41,0c-4.64,17.23,4.7,38.03,15.09,51.91,23.49,31.37,74.9,53.69,111.16,66.84l33.24,11.24C104.4,119.78,49.08,97.93.41,66c-2.3,18.17,5.48,35.85,15.69,50.31,21.99,31.13,57.91,46.33,93.6,56.4,36.12,10.2,74.78,16.33,112.21,19.29-.69,1.77-5.93,1.12-7.54,1.04-2.82-.15-5.28-.97-7.91-1.09-4.65-.21-9.38.34-14.03.03-57.98-3.86-114.81-17.57-170.51-32.98,13.95,58,75.97,77.42,128.63,83.86,25.37,3.11,49.52,3.08,74.88,2.14,9.83-.37,19.67-.49,29.48-1l-35.5,4.98c-46.84,4.45-94.17,3.54-140.98-1-3.3-.32-7.3-1.07-10.5-1.99,5.97,15.62,22.03,29.55,35.68,38.81,51.68,35.09,130.57,15.64,186.31.19-.04,1.48-2.82,1.9-4.05,2.44-42.77,18.74-90.34,30.91-136.94,34.56,3.31,9.58,15.37,17.72,23.98,22.51,45.16,25.15,87.6,7.14,130.38-12.66l29.64-15.85c-29.34,25.54-64.42,44.83-100.99,58.01,2.18,8.62,14.27,14.42,22.48,17,50.68,15.94,86.06-20.34,121.51-50.01l-10.48,14.01c-19.32,19.65-39.17,39.55-63.51,53-1.3,1.89,8.51,7.33,10.31,8.17,6.73,3.15,20.85,6.91,28.14,6.85,27.96-.21,53.73-35.19,69.54-55.04-8.79,19.06-20.61,37.25-34.48,53.01-2.59,2.95-10.76,9.5-12.05,11.96-1.45,2.76,7.02,5.94,9.28,6.79,37.27,13.99,56.21-19.33,71.76-46.77,1.16.58.12,2.86-.18,3.83-3.97,12.72-10.71,24.58-16.51,36.49l-11.8,17.68c34.25,19.53,54.05-9.55,63.01-38.98,1.83-.22.86,2.13.72,3.22-2.12,16.47-10.61,33.98-17.73,48.76,14.97,5.27,29,5.15,39.41-8.07l10.58-17.91c-.56,11.79-4.47,22.9-7.99,33.99,8.39,1.69,15.66-.54,24-1,1.34,20.46,5.34,40.99,13.83,59.7l-.28,1.28c-43.42,36.64-91.85,67.28-141.83,94.25-4.31,1.72,1.77,8.79,3.79,10.77,20.97,20.59,41.93,7.76,62.01-4.97,29.41-18.64,56.05-41.4,81.47-65.02-.64,2.62-3.3,5.31-5.01,7.48-17.99,22.77-45.08,45.09-68.08,62.92-8.71,6.75-17.5,13.56-26.96,19.17,3.67,12.27,23.27,17.39,34.61,16.47,11.12-.91,24.06-11.51,32.47-18.52,12.77-10.66,23.53-23.53,35.98-34.51l-12.02,17.47-37,42.03c-.02,9.16,34.53,9.69,41.03,6.51-1.29,3.52-3.15,5.75-3.73,9.76-.52,3.54.25,7.31-.47,10.53-.55,2.49-3.44,5.56-4.49,9.51-8.37,31.4,19.74,61.36,51.71,53.2.48-2.62-.43-1.55-1.43-2.08-14.37-7.62-19.69-17.2-8.4-31.24,7.7-9.58,16.79-12.36,28.15-6.49,15.24,7.87,8.87,27.02,13.21,39.79,6.52,19.19,34.18,31.64,50.47,17.04-11.15.53-19.71-4.78-22.95-15.56-1.19-3.95-2.9-14-2.84-17.94.13-9.15,6.21-19.7,4.78-29.5l-2.98,5.99c2.1-9.22.42-33.2-11.74-34.8-13.16-1.73-12.16,19.3-7.27,26.8-2.6.67-1.76-.9-2.6-1.87-9.13-10.46-13.74-31.89,4.09-35.13l11.51,3.51c-7.84-9.35-19.34-12.68-26.86-.87l-3.12,11.36c-1.44-7.13-2.19-15.23,1.78-21.7,5.67-9.25,18.24-7.99,24.04.37,9.23,13.31,16.62,31.03,15.71,47.39,9.1,7.62,16.12,17.8,14.37,30.36-.66,4.74-7.33,14.38,4.11,5.11,14.22-11.52,15.27-35.74,6.8-50.85-2.21-3.94-12.29-15.56-12.32-18.78-.1-11.67,15.23-31.63,21.04-41.86,1.92-2.2,1.78-.59,1.05,1.04-6.24,13.83-13.15,27.3-17.59,41.9,7.01,1.96,20.82,3.92,26.99-.5,7.79-5.58,16.8-29.86,19.02-39.48,1.8-.24.91,2.17.74,3.24-1.79,11.4-6.11,22.55-8.75,33.75,11.77,1.16,30.47-7.99,35.73-18.76,4.32-8.85,6.06-20.36,10.77-29.24l-3.44,26.44c3.36,10.63,6.67,21.46,3.48,32.61-2.35,8.21-10.74,11.54-16.05,17.95-9.94,12-11.2,25.68-4.97,40,2.16,4.97,6.42,12.04,12.49,12-5.15-7.19-3.93-21.89,4.61-25.88,7.28-3.4,14.71-3.62,20.38-11.11-.55,17.59,4.48,37.67-10.64,50.85-3.28,2.86-13.87,6.53-14.31,7.2-2.12,3.22,5.11,5.53,7.54,5.86,18.42,2.5,33.29-6.89,40.19-23.64,4.07-9.9,7.36-16.38,12.08-25.92,3.51-7.09,2.28-13.93,13.4-12.12,22.95,3.73,19.47,38.3-3.26,39.78,12.8,10.13,32.8-.33,41.98-11.53,21.98-26.84,9.2-77.74-28.48-78.56-2.49-.05-5.24,1.82-7.49.59,6.38-11.14,11.33-23.11,15.18-35.48,12.4.38,29.46-1.79,29.45-8.23l-20.79-30.52c.13-.84.24-1.68.35-2.51,9.84,11.42,20.35,26.05,39.86,26.57,11.37.3,30.94-4.19,34.61-16.47-9.46-5.61-18.25-12.43-26.96-19.17-12.91-10.01-27.12-21.44-40.27-33.56,10.2-30.41,28.5-58.53,31.56-91.14h14c-1.13-2.28-2.71-6.09-3-8.5-.7-5.74.51-12.62,0-18.5l6.58,13.92c6.85,13.07,24.22,12.59,36.42,8.07-5.9-12.78-13.37-29.52-14.88-43.61-.12-1.1-.9-3.61.87-3.37,7.03,17.16,15.7,42.88,38.52,42.06,3.27-.12,16.17-3.7,18.49-5.58,1.65-1.34.59-.95.04-2-1.32-2.57-3.74-5.13-5.21-7.81-7.85-14.33-14.46-29.56-17.82-45.67l19.57,31.92c11.04,14.52,26.87,18.1,44.22,13.38,2.26-.61,11.26-3.41,9.73-6.33-17.06-17.72-31.72-38.45-39.53-61.97,12.8,18.18,33.63,49.06,57.6,51.89,14.5,1.72,28.96-2.89,41.39-9.91-14.93-11.76-30.31-23.2-43.03-37.46-6.61-7.41-13.86-16.49-17.96-25.53,11.77,11.09,23.28,22.58,36.68,31.81,24.45,16.84,42.52,22.59,71.83,12.2,2.03-.72,21.05-8.62,18.48-12-32.63-14.78-64.1-35.25-89-61l29.33,18.16c37.71,19.64,83.06,40.21,122.8,13.46,2.65-1.79,19.99-15.7,16.86-18.63-33.04-3.04-65.14-13.4-95.67-25.83l-28.32-15.17c66.04,22.75,163.88,47.72,206.99-26-18.01,1.19-36.42,1.57-54.54,1.03-12.39-.37-25.51-1.08-37.95-2.05-24.54-1.91-49.77-5.54-73.68-11.33-1.2-.29-3.98-.09-3.83-1.65,43.51,5.45,89.76,8.27,133.2.7,44.21-7.7,85.87-29.91,100.79-74.7-32.06,7.14-65.05,15.45-97.64,19.85-24.86,3.36-49.89,4.15-74.9,5.1-5.69.22-10.76,1.3-16.97,1.04-1.21-.05-3.72.75-3.49-.99,41.64-3.38,84.96-9.37,124.99-21.51,49.85-15.12,101.75-47.2,108.49-103.51-64.37,33.7-133.07,56.77-205.12,67.89l-4.37-.87ZM299.39,178.02l-9.96-11.04,35.72,14.28,47.77,11.73c-12.39-.87-26.29,1.17-38.5,0-11.75-1.13-26.07-7.4-35.03-14.97ZM321.39,219.02c-1.15-.97-9.56-8.96-8.47-10.02,26.02,12.59,55.01,18.27,83.99,17.01l-26.51,5.97c-17.86,1.04-35-1.14-49.01-12.96ZM352.91,256c24.17,7.66,49.8,9.89,74.99,7l-17.62,5.87c-20.16,5.61-43.53,4.64-57.38-12.87ZM389.9,297.49c21.92,3.03,44.38,4.07,66.01-1.49-4.08,3.43-11.28,6.28-16.48,8.01-18.59,6.17-33.54,5.46-49.53-6.52ZM428.92,334.49c4.53-.21,8.9.69,13.54.54,3.55-.11,9.36-.64,12.94-1.05,10.7-1.22,21.12-4.39,31.51-6.98-16,12.41-39.91,20.41-58,7.49ZM511.91,354.5c-10.4,12.39-25.19,17.7-41,12.49l24.26-6.23,18.73-9.76c.44,1.88-1.04,2.38-1.99,3.5ZM848.42,377c-1.17,1.01-10.56,15.11-12.5,12.99l10.98-37.99c2.01,10.4,5.12,21,5.88,31.62,2.82,39.47-21.01,77.92-59.87,88.36,6.45-5.3,14.18-8.59,20.89-13.6,8.58-6.4,16.6-14.53,21.1-24.39-3.03,1.21-6.33,2.49-9.6,2.9-1.07.13-3.63.86-3.38-.88,7.82.18,28.03-23.33,23.98-29.01-4.11,2.43-8.85,6.26-13.99,5.5,9.79-8.75,18.79-21.6,16.5-35.5ZM811.71,597.34l6.19-9.34c.28,7.62-5.68,14.43-12.99,15.99l6.8-6.64ZM798.91,530.98c5.67-6.29,9.59-13.7,13.18-21.31l5.81-19.68c4.22,16.03-2.87,34.99-18.99,40.98ZM817.92,560.99l14.16-21.33,7.82-18.67c1.54,16.22-6.52,33.53-21.98,39.99ZM793.47,382.93c-1.66-3.21-4.93-4.52-5.56-7.93l10.9-4.95c8.95,15.62,7.5,36.5-9.6,45.74-13.72,7.42-33.21,2.33-33.85-14.79l4.05-2.99c9.44,27.2,45.6,7.26,34.06-15.08ZM775.91,582.98c6.53-7.33,13.77-14.39,18.18-23.31,1.06-2.14,1.04-5.59,2.81-6.67,2.02,14.41-7.88,25.71-20.99,29.99ZM813.91,373.98l17.99-19.99c-2.51,8.83-9.46,16.5-17.99,19.99ZM821.92,331.5c1.77-2.32,1.11-5.84,3.99-5.5-1.06,15.77-10.31,23.11-22.69,30.8-19.27,11.96-42.44,18.68-57.29,36.71l-7.01,10.47c.55-19.01,19.01-35.25,34.32-44.17,15.92-9.27,37.01-13.05,48.68-28.32ZM772.91,338.98c8.48-8.24,20.15-15.41,31.99-16.98l-31.99,16.98ZM752.91,322.98c6.77-7.99,18.54-12.78,28.99-12.98l-28.99,12.98ZM755.91,296.98l-17.99-8.98c6.46,1.03,13.84,3.63,17.99,8.98ZM741.9,354.99l-8,17-1.98-.49c2.68-5.86,3.93-13,9.98-16.51ZM703.29,289.12c2.14.89,17.86,10.4,15.61,12.87l-19.98-13.99c1.68-.3,2.93.52,4.37,1.12ZM712.9,350.99c-1.29.28-1.62-1.89-1.75-2.75-.82-5.72,1.36-13.29,5.75-17.25-2.38,6.52-4.83,12.85-4,19.99ZM688.9,300.99l-15.98-10.99c3.01-1.1,18.04,8.73,15.98,10.99ZM690.9,343.99l-5.02-6.46-3.96-7.53c4.36,3.07,8.46,8.57,8.98,13.99ZM682.9,372.99l-10.98-18.99c1.15-1.3,12.65,15.82,10.98,18.99ZM659.91,317.98l-14.01-7.48-10.98-3.5c9.3-.35,19.44,3.28,24.99,10.98ZM648.91,339.98l-20.92-11.57-10.08-7.41c11.81,3.34,22.53,10.23,31,18.98ZM595.92,318.99c3.12,2.77,4.17,7.39,6.56,10.93,10.42,15.39,25.99,18.6,41.1,26.9,17.22,9.45,33.79,23.43,36.32,44.17-3.06-3.12-5.01-7.15-7.96-10.53-6.65-7.58-19.19-17.07-28.01-21.99-21.83-12.18-51.99-15.95-48.01-49.48ZM655.92,395.99c13.48,2.7-.04,16.34-7.31,19.2-11.63,4.57-22.86.35-30.11-9.29-9.31-12.37-6.16-26.13.43-38.91l11.98,5.01-6.84,6.64c-12.44,23.79,23.43,45.55,31.86,17.35ZM602.91,370.98c-7.74-2.66-12.81-10.39-14.99-17.99l14.99,17.99ZM572.45,349.03c.49-1.19,1.03-4.01,2.45-4.03-.24,10.04,1.05,20.13,3.75,29.75.88,3.15,3.12,6.63,2.76,9.24l-11.5-14.99c.53,5.51-.72,12.16,0,17.5,1,7.44,7.19,17.26,11.99,23.01-1.37,1.34-3.73-1.34-4.87-2.13-3.33-2.32-5.25-4.72-8.12-7.37-.11,17.04,14.23,29.02,28.98,34.5-4.71.64-9.4-1.34-13.89-2.12-1.01-.18-2.8-1.2-2.09,1.1,1.52,4.99,13.11,16.05,17.51,19.49,6.23,4.87,13.08,8.78,20.48,11.53-28.43-3.47-48.86-27.88-53.72-55.29-3.32-18.75-.98-42.47,6.24-60.17ZM568.92,563l4,35.99,7.98-12.99c-6.09,14.9-6.59,29.27-3.98,44.99l7.18-13.31,9.8-10.69-9.76,19.73-6.25,24.26-3.26-7.22c-8.16-25.85-14.42-54.24-5.71-80.77ZM551.86,503.44c.13-1.71-.12-3.3,1.55-4.44l5.32,16.67,13.17,24.32c-13.62-4.54-21.06-23.06-20.04-36.55ZM581.42,519c1.87,12.2,7.96,23.38,15.49,32.99-12.74-3.92-21.69-20.68-15.49-32.99ZM591.42,476c.48,7.43,1.35,14.8,4.22,21.77l9.26,18.23c-14.19-8.11-20.23-24.79-13.49-39.99ZM543.79,412.33c.5-1.62-.82-2.83,2.12-2.32-1.85,14.23-1.64,30.87,1.47,45.03,1.58,7.21,4.42,16.5,10.53,20.96-1.68-7.93-1.59-15.61,1.26-23.26.39-1.05.34-2.97,1.74-2.73-.71,15.48,2.52,32.12,13.01,43.99-32.97-7.6-38.45-54.68-30.12-81.66ZM567.9,729.99c-2.07-1.22-2.21-4.5-3.97-6.51-4.57-5.22-12.11-3.98-14.69,2.32-2.86,6.97-2.49,13.78-1.72,21.1.16,1.56,1.29,3.28-1.11,1.1-5.41-9.9-6.35-35.77,8.07-37.94,11.13-1.67,14.2,10.96,13.42,19.93ZM580.73,688.68c-2.27-.63-4.46-.91-6.81-.68l2.99,12.99c-5.01-5.04-10.48-9.02-17.98-6.99-.12,1.67,2.18.91,3.54,1.94,4.91,3.73,8.79,10.11,10.45,16.05-6.05-8.31-13.97-10.84-23.98-8-1.02-20.92,20.74-30.65,38.88-25.89l1.11,14.89c-3.25-.86-4.54-3.3-8.18-4.31ZM589.92,673.99c-4.45-27.77,29.16-43.02,38.98-13-13.54-9.79-27.96-9.62-36.17,6.32-1.1,2.14-1.01,5.59-2.81,6.67ZM613.92,582l11.99,16.99c-6.94-2.49-12-9.61-11.99-16.99ZM602.91,673.5l-4.99,9.49c-4.25-17.04,4.92-30.86,23.22-22.73,4.21,1.87,9.47,6.09,10.76,10.73-9.52-4.95-21.45-6.77-28.99,2.5ZM615.92,540.99l8.47,19.02,8.51,12.98c-11.96-5.62-20.94-18.36-16.98-31.99ZM626.92,503l5.18,13.3,12.81,16.68c-13.71-4.09-19.94-16.14-17.99-29.99ZM652.92,604.48l1.97-.48c.62.54,3.12,6.22,5.54,6.97l10.47,7.01c-7.94-.67-14.59-6.5-17.99-13.5ZM654.92,563.99l19.99,19.99c-9.21-2.69-18.42-10.11-19.99-19.99ZM666.92,523l4.82,10.66,8.16,12.33c-7.94-4.04-13.39-14.17-12.98-22.99ZM697.92,617.98l14-6.98c-2.9,4.92-8.32,7.36-14,6.98ZM700.91,580.99c3.34-3.22,9.58-4.49,14-5.98-2.58,5.27-9.17,4.53-14,5.98ZM732.91,551.98l9.83-11.66,7.16-13.32c.11,7.99-3.82,14.72-9.52,19.97-.89.82-6.75,5.68-7.47,5.02ZM734.91,618.98l15-9.98c-3.42,4.72-9.06,9.37-15,9.98ZM738.92,591.99l7.46-8.03c6.98-4.29,10.41-11.89,15.52-17.97-2.35,13.13-10.89,21.33-22.98,26ZM755.65,458.23c-4.16,1.51-19.87,8.13-21.8,11.2-3.19,5.07-2.35,18.83-6.94,24.55l15.08-14.41c4-2.23,7.86-6.62,12.91-6.09-21.85,15.41-33.65,37.83-46.49,60.49-1.66.03-9.57-18.52-11.33-21.65-9.77-17.35-24.25-29.7-41.17-39.83,5.35.24,11.38,3.36,15.92,6.08,6.93,4.16,11.99,10.25,18.07,15.42l-6.96-24.53c-12.32-12.08-29.12-13.28-43.83-19.22-1.51-.61-2.71.59-2.19-2.25,13.7,1.89,27.3-3.39,36.98-13l-3.53,8.96-8.45,6.03,21.99,10c-1.24-5.85,3.37-11.5,3.05-17.46-.28-5.13-4.87-11.91-4.87-17.03,0-10.03,13.04-30.9,22.99-33.82,16.25-4.78,32.14,24.02,30.84,37.83-.49,5.14-4.75,11.72-4.94,16.07-.17,3.94,3.08,10.07,2.94,14.42l20.99-9.01-8.99-6.49-1.99-6.5c6.81,5.72,16.8,9.27,25.59,10.89,2.94.54,6.39.1,9.34.49,1.71.22,2.91-.26,1.05,1.6-1.19,1.19-20.56,5.92-24.26,7.25ZM764.91,539.98l10.22-12.27,8.77-15.72c.83,12.59-7.2,24.03-18.99,27.99ZM789.9,745.99c-1.88.22-.77-2.02-.54-3.04,1.44-6.6,6.77-28.42-4-29.98-9.59-1.39-11.24,16.36-10.46,23.02-1.49.15-1.6-2.46-1.91-3.57-1.91-6.99-2.94-13.25-.37-20.21,5.18-14.06,22.21-12.19,24.2,2.38,1.6,11.66-2.05,21.22-6.92,31.4ZM807.9,698.99c-4.64-6.54-8.6-13.77-17.58-14.91-5.86-.74-15.57,1.36-17.4,7.91,17.65-14.55,30.11,4.14,26.98,22l-4.98-12.51c-7.04-7.26-17.57-7.01-23.47,1.55-1.26,1.83-.84,4.51-2.53,4.96-.06-2.42-.15-4.83.25-7.23.47-2.8,2.6-10.61,3.49-13.47,4.14-13.34,23.06-17.69,31.77-6.32,4.08,5.33,3.59,11.57,3.47,18.02ZM807.83,675.58c-6.16-4.69-14.47-6.77-22.18-5.35-4.05.75-6.01,4.31-9.73,4.27,10.54-22.52,37.64-17.43,36.98,7.49l-5.07-6.41ZM798.92,625.5c4.21-3.68,12.45-.12,16.02,2.97.35.31.75.7,1.16,1.16-.42,2.14-.55,4.34-.26,6.55-4.18-4.9-11.67-8.19-16.92-10.68ZM853.9,742.99l-2.2-12.28c-5.15-7.35-12.56-2.89-16.83,2.74-1.03,1.36-.27,3.66-1.94,3.54-2.39-34.19,28.59-19.61,20.98,6ZM846.91,713.98c-5.11-2.03-12.91-4.15-17.53-.02-1.88,1.67-1.57,4.31-3.46,5.03l2.99-15.98c-2.32-.25-4.38.2-6.56.93-3.25,1.1-4.43,3.41-7.44,4.05,2.49-4.35,2.09-9.16,1.99-13.99,13.87-1.57,25.76,7.07,30,19.99ZM834.92,507.99c6.21-16.48,7.38-34.47,8-51.99,1.44-.24,1.4,1.76,1.68,2.79,2.75,9.88,3.29,21.68,1.29,31.69.28,1.09,1.33.61,2.03.03,1.64-1.35,7.78-11.34,9.15-13.85,4.92-8.96,8.03-18.7,10.34-28.66l3.48-22c4.34,30.5-6.14,68.08-35.98,81.99ZM920.67,372.74c-12.42-2.54-22.93-12.69-26.75-24.74,9.31,13,34.98,26,34.98,26-2.59-1.51-5.5-.7-8.23-1.26ZM955.41,349.99c-10.09-1.44-22.95-11.95-29.47-19.53-.83-.96-5.7-6.75-5.02-7.47l48.99,27c-4.56-.45-10.1.63-14.5,0ZM1004.45,321.03c-22.34,2.54-42.54-10.98-56.54-27.03,7.61,3.29,14.71,7.88,22.33,11.16l44.67,12.84-10.46,3.03ZM1044.13,287.71c-25.12,7.87-51-5.01-69.22-21.71,24.44,10.1,50.36,17.19,76.99,18l-7.78,3.71ZM1025.39,251.01l-24.48-12.01c29.29,6.98,59.93,11.99,89.99,7,0,0-18.27,20-65.51,5.01ZM1030.92,211.98h52.48s42.51-5.98,42.51-5.98c-24.61,26.62-64.6,13.82-94.99,5.98ZM1148.42,170.01c-21.92,23.8-67.42,18.13-96.51,15.98l69.01-12.47,31.98-10.51c.71.73-3.69,6.16-4.48,7.01Z"/>
      <path d="M708.55,434.07c-25.95,21.5-15.06,61.76-1.67,87.46.48.93.59,2.38,2.02,2.47,13.39-26.99,28.59-67.54-.35-89.92Z"/>
      <path d="M698.42,422c-6.64,4.78-8.05,7.18-5.79,14.78.34,1.16.82,4.22,2.27,4.21,2.64-7.01,4.99-20.18,15.03-17.54,7.82,2.05,9.27,12.05,13.25,17.78.81,1.16.78,2.19,2.73,1.76l.84-15.33c-9.02-7.14-17.53-13.44-28.33-5.66Z"/>
    </g>
  </g>
</svg>